/* XPM */
static char *result[] = {
/* columns rows colors chars-per-pixel */
"64 64 89 1 ",
"  c #83BFE1",
". c #8FC4DD",
"X c #94C5DD",
"o c #9BC6DC",
"O c #97C8DE",
"+ c #9DC9DD",
"@ c #A0C7DC",
"# c #A4CBDC",
"$ c #ABCDDC",
"% c #B2CEDC",
"& c #B9CFDD",
"* c #A7D0DE",
"= c #AED0DD",
"- c #B4D1DC",
"; c #BCD3DC",
": c #8EC3E0",
"> c #94C5E2",
", c #99C7E6",
"< c #97C9E4",
"1 c #9BCAE4",
"2 c #96CCEE",
"3 c #9CCDEB",
"4 c #9FDEED",
"5 c #9ED4F5",
"6 c #9EDFF0",
"7 c #9ED3F8",
"8 c #A3CCE3",
"9 c #ABCEE2",
"0 c #A1CFEB",
"q c #A8CFE9",
"w c #B1CEE1",
"e c #A4D4E3",
"r c #AAD2E2",
"t c #A3D8E7",
"y c #A5D3E9",
"u c #A8D0E9",
"i c #A1DBEA",
"p c #B3D3E3",
"a c #BAD5E2",
"s c #B3D8E7",
"d c #B8D8E1",
"f c #B4DAEC",
"g c #BBDCEB",
"h c #A2D5F5",
"j c #AAD6F2",
"k c #A6D8F3",
"l c #A6DCFD",
"z c #A9DDFD",
"x c #B3DEF4",
"c c #B8DEF6",
"v c #B4DEF9",
"b c #9FE1EE",
"n c #9FE3F3",
"m c #9FE6F9",
"M c #BFE0EC",
"N c #A0E5F6",
"B c #A2E6FC",
"V c #ABE4FF",
"C c #A5E9FC",
"Z c #ACE9FE",
"A c #B7E2F2",
"S c #BCE2F3",
"D c #B3E4FE",
"F c #BAE5FC",
"G c #B3EBFD",
"H c #BCEBFD",
"J c #C3D5DB",
"K c #C9D6DA",
"L c #CBD8DB",
"P c #C2D8E2",
"I c #C2DDEA",
"U c #C3E2EB",
"Y c #CCE3EB",
"T c #D0E6EF",
"R c #C3E4F2",
"E c #CBE6F1",
"W c #C4E9F7",
"Q c #CDEAF6",
"! c #C4E6F9",
"~ c #C4ECFC",
"^ c #CBEDFB",
"/ c #D1E6F0",
"( c #D3EAF4",
") c #DCECF5",
"_ c #D3EDFA",
"` c #DAEEF9",
"' c #D2F1FC",
"] c #DBF1F9",
"[ c #E5F2F9",
/* pixels */
"~GVCVVVVVVVVVVZVVBBG_[[]]]_]``^H~_^!H~HHFFFCVVVVZZVVVVVGZVVZZVZV",
"!FVVVVCVVVVVVVVVVBV!``_QQ_)))'!~__~~^)]))_FVVVVVVVVVVVVVVVVVVVVV",
"DlzzzzVVVVzVzzBVDWQ))/(QQ)))]Q^W~~QQ((()(!DzVVVVVzVVzVllVVlllVlV",
"vzVllllzllllllvFETTRcMSRT(TYRRUMAASSSSAYRxllllllllllllllllllzvvv",
"ssgxjhhhhhhh5jITUUUMbdAdMMggssffffgIcfkkhhhhhhhhhhh57777h77hfIIg",
"=p-pq,3333330pads**=-ee***e*#8rrpaPPPpr3223,,3013qqq02233220pa%9",
"##++,<<181118r9#O..+**=-$O.X#=--aPPJJJa889w8,,,,8aJ&w99w8,>8%$@#",
"1ooo#90,388e8881+OO*;JLL;+O+-;;;KKKJJ;%$&JKJ98,,9KJJ;JaJw8,89#o#",
"###%%-r18rp%9818**=JKKJJJ-;;;;;;&;JJL-*=-;;;w9,9&J;Ja--a&w888$$#",
"&&&%%-$=%pp=$8#8+*JLJJ;J;JJJJ;;--;-;J;;==;;#@ ,9&%w&%$$;J;w%%&&&",
"&&%;;---$%%#1O-;;;JKJJ;JJ;-JJJ-=-;J;JJL;=p$> 889%;%98$&KJa&JJ;&;",
"%$$%;-##$--$+*JLJJJJJJJ-d-;JJJ;=-;;JJ;;;;#:  #%%;KJ;=;JPa%;J&%&;",
"--$%$$+<#=$**=;KK;KJL;;==-;;--;-=--;;;;;-#>X$&JKKJJ&;J;;---%---;",
"-$=#8#O+++++1+-;;JJJ;;-*==--==-------;;%=+o$%-&J;%%&;JJa-8##;J;;",
"$#####=--==**-;;-;;=*====**--==%-===*===$$$$$9$&%%@%----#88%JJ;%",
"----%-;;-;;--;L-=;=*#####**===%==##$**=%-%%$#@@$$@@oX#==*#aKK;;;",
";J;;;%=%%%&%%%&%%%$$%$$$=%%%$#$$#oo+@@$;;;&%%#@$@@##@#%%;;;JJ;;J",
";;;-$@@$%$$$$%%%##$$%%=##%=%%$#$$#o@###$%%%%%%$#@%%%%%%KKKK;;JJ;",
"==$$%@@@#o@##$$$$$#$#%%#@$$=%$$#$###@@++@@@$@###@$$$$%%;;;JK;KJ%",
"ooo+o#ooooo#@@@@@@@##$$#$###@###+o++@@ooooo@@@#o@ooo@##$$%;;;;J;",
".XXoooooo#oo@oooooooooo+++oooOoooooo@@@@@@@@oo+oooo@#@@@@@@@@@%%",
"+@++o###$@$####o#+ooooo+o+o+oo++o#o#@@@@o@oooooXXoXoooooo@@ooo@@",
"$###$##$$$$=%$$%$$$$$$$$###########@@@@@@@oooooOoooooooooXooXooo",
"$$$$$$#$$$##$#$$$$$#$**$$*$$*##$##$####@@#@@o#o+@@o@@o@@@@@@@@@@",
"$*$******#*##***#$#$=#*#=#*##=##$#*#*#*#*+####*#*#**+##*@@######",
"**************#****##**##*#*#***$$***##******$**###*#***%@=#####",
"********************#*=#**=*$#e$#***********************@#=#****",
"ee**e*ee****e***eee*eetee*eeee*e***eee**ee************ee$=#*****",
"eeObttOitteett14eee3tttttettttittetttebeeeeeeeeeeteteeeeeeee*eee",
"44444t44tt4414444b44iiiit4iiiiiii444bt4b4bbbbbbetttbttbtbtteettt",
"bb664666bbbbbbbbbbb64n44b446i44i44b4bbb4bbbbbbbbbbbbtbbbtbebbbbe",
"b666666nbnnnnnnnbnnnnnnNnnn6nNn6nnbnbbbbbbbbbbbbbbbbbbbbbbbbbbbb",
"mmmmmmmmmmmmmmmmmmmmnmmnnmNmNmNNNnnNnnnmnnnnnnNNNNbNbNbnnnbNbNbN",
"mmmmmmmCmBmBCmBmCmmmmmmmCmCmCmCCBNmCCmCNCmCnNCNCNNNNNNNNNNNNNNNN",
"mmmCmCBBCmBBmCBBBBCBCCCCCCCCCCCCCCCCCCCCCCCCCCCCCCCNNCCCCCNCCNCC",
"BCCBBCCCCCCCCCCCCCCZCCZCCCZZZCCGZGGZGZGGGGGGGGGGGGGGGZGGGGGGGGGG",
"CCCCCVCCCZCVZZZZZZZZZZGGGGGHHH~~~~~~~~~'~^~~^~~HHHHHHGHGGGGGGGGG",
"ZZZVCZZVVZVZVZVZVZGZGGHH~~^'^''''''''^^H~HHGGGGGGGGGGGGGGGGGCGGC",
"GVVVVVCVVVZCZVVVVGDG~~~^^'''(]'^'^^~~~~~~HHGGGFDGZGGGGZVVGVZZZGG",
"FFVVzVVVVVVVVVDVDFF~Q('QQ'((]('Q^''~Q'']`_!FDDDVGZZZZVVVVVZZZZCC",
"DVVzVzVzVzzzVVvDF!/)(QQ/T))))('QWWWQ(Q()(!FVVVzVVzzVVzzzVVlzVVzz",
"vzzlllllllzzlvvRE/QRSMSRYYYYUUUAAAWSRAcRRxklllzllllllllllllllzvv",
"ssgfjhkhhhlhhuRTYUUffffsddd;ddsMfgMMcfkkkkh5hhhhhhh557h7557hfggg",
"$ppw833303330padrr=r=ryr***#eeeerd;JPar322,3,3803q0u03223230wa9$",
"###+,,<118118r=*O::+#8-;=XXX+===aJJJ;J;839w9,,,,8aJapw9w8,,8w###",
"oooo898,3888881+eO<#-JKL;#X+=J;;KLLJK;w$&JK&98,,9KJJ;;;Jw,,89#@#",
"##$$%-8889-p9818#*-JLJJJ;=;;JJ;;;J;JJd#$;;;&%988&J&J;--aJw889$##",
";%&%%==-%p-=*18e+8dLKJJ;;JJJJ;;;--;;J;d%$;;$> ,9&%w&p#$;J;w%%&&&",
"&&%;----=$-#<O-J-;JKJ;JJJ;;;JJ===;JJJJK;==@..X@#%&%%#$;J;;-JJ;;;",
"%9$%;-=1$--=+*;LJJJKKKJ-=J;JJJ;==;;JJJ;J;#X..$%%JJJ&$;KJ-d;K;$;;",
"--%9=#+O#$$#**JKJ;KKJJ===;=J=;;===;;;J;;-#Xo#%JKKJJ&;;;;p----%&;",
"-$$$*++o+#+1O*-;JJJJ-J-=======%;;==--=-%=+o%%%;K&%%&J;J;-#1#;K;p",
"$###o$=%-%=#*-;-%J;=$==$**====%%====%=%==$$$##%%%$$$%%;%$##&JJ;%",
"---%%%;--;;-;;K;%%=#@###**=======**=$#=%%%%$@@@%$#@@o#=##$%JK;;;",
";JJ;;%%$%%%%$;;$%%$===$$=====$$$#o++@@%%;;%%$$###@@@@#$;;;JJJ;;J",
";;;-$@#%$%$$$%%$@$$==%=$*===%$#$##++@@$%%%%%%%$#@%%&%%%KKJJJ&JJ;",
"$$=$#+@o@@###$$$####==$####%%%%#=+@#@#+o@######@@##$$=%;;;JJJKJ&",
"ooo+@@ooooo@@#@@#+####$=%##$##@o++@@+++ooooo#@@o@o@@@#$$$-;J&;;&",
".XXXoo@@#@@@oo@@+XXXoo@#ooXXoXXoo++@@#@@#@@oo@oXXo@@##@@##$$$@%%",
"o@@@@#$$%%$$#@oo+++XoooooXXoo@o@++@###+@oooXXXXXXo@@@@ooXXoXXX@@",
"$##$$$$%----%$$$**===#==#@@#=#@#@@@@@oXXXXXXXXXXXoXX+o@@ooXXXX@$",
"$$#$$***#***@$##*####===#%###==@#@$@@####@@#@@@@@@@@++##@ooo@@$%",
"$#***+*++*++Oe+++####=###==##$$$$#$##$$$##$#######@@####@+@@##@@",
"***$#*#**+e+#+####+###=#####=##$##@@#@##########$##@+####@@@@@@@"
};
