/* XPM */
static char *result[] = {
/* columns rows colors chars-per-pixel */
"64 64 256 2 ",
"   c #7F6F2F",
".  c #1D3A4D",
"X  c #2A3B4B",
"o  c #36375A",
"O  c #293971",
"+  c #543C46",
"@  c #1C465A",
"#  c #2D434B",
"$  c #274857",
"%  c #364A58",
"&  c #2B555A",
"*  c #3A525D",
"=  c #29665F",
"-  c #1D4C63",
";  c #1F5265",
":  c #1E536A",
">  c #1A5677",
",  c #244D66",
"<  c #394A68",
"1  c #215266",
"2  c #2A5966",
"3  c #21536A",
"4  c #3D5462",
"5  c #3A5A67",
"6  c #284875",
"7  c #394B75",
"8  c #2C5475",
"9  c #255876",
"0  c #2A547A",
"q  c #2C5A7B",
"w  c #385578",
"e  c #315C7C",
"r  c #356566",
"t  c #2B6A72",
"y  c #386579",
"u  c #3C7577",
"i  c #57414C",
"p  c #484A5A",
"a  c #574754",
"s  c #43555D",
"d  c #674854",
"f  c #6A694B",
"g  c #445A65",
"h  c #455867",
"j  c #4A5C65",
"k  c #4E506E",
"l  c #445C6B",
"z  c #434E75",
"x  c #45527A",
"c  c #47577A",
"v  c #735474",
"b  c #47646C",
"n  c #4C626C",
"m  c #53666D",
"M  c #456575",
"N  c #4B6372",
"B  c #4B6C74",
"V  c #446C7C",
"C  c #4B6D7B",
"Z  c #546B77",
"A  c #4E717C",
"S  c #447978",
"D  c #557579",
"F  c #53737C",
"G  c #5B737D",
"H  c #6B7678",
"J  c #877E53",
"K  c #8C5474",
"L  c #B25877",
"P  c #8E7278",
"I  c #B26778",
"U  c #CD5774",
"Y  c #E55B72",
"T  c #D1637B",
"R  c #F46C79",
"E  c #3C8478",
"W  c #7E985D",
"Q  c #42816D",
"!  c #46857B",
"~  c #748A76",
"^  c #9B8B35",
"/  c #AF9E3B",
"(  c #928D50",
")  c #B0B14F",
"_  c #9F9662",
"`  c #8E8D70",
"'  c #B3A96E",
"]  c #DEA35C",
"[  c #D6956D",
"{  c #F1976F",
"}  c #F2A470",
"|  c #E8C859",
" . c #105590",
".. c #195A97",
"X. c #1D5B9C",
"o. c #2A4A8E",
"O. c #295B85",
"+. c #365C87",
"@. c #295D96",
"#. c #245D9C",
"$. c #355C96",
"%. c #1E6996",
"&. c #2B658B",
"*. c #346383",
"=. c #376789",
"-. c #3A748C",
";. c #286696",
":. c #2B639A",
">. c #2B6C9C",
",. c #336C94",
"<. c #386896",
"1. c #35659B",
"2. c #356A9D",
"3. c #29749C",
"4. c #34739C",
"5. c #387599",
"6. c #0A5BA7",
"7. c #1C5CA2",
"8. c #175CA8",
"9. c #0F5DB1",
"0. c #245DA1",
"q. c #3057B1",
"w. c #1362A7",
"e. c #1D62A5",
"r. c #1E64AA",
"t. c #1E69AD",
"y. c #1E78AF",
"u. c #1F6DB4",
"i. c #1D74B7",
"p. c #2263A3",
"a. c #246BA4",
"s. c #2B6AA6",
"d. c #2265AA",
"f. c #216BAC",
"g. c #356CA2",
"h. c #346AA8",
"j. c #2B73A3",
"k. c #2573AC",
"l. c #2B74AC",
"z. c #2679A8",
"x. c #2B7BAB",
"c. c #3473A4",
"v. c #387AA6",
"b. c #3273AB",
"n. c #357AAB",
"m. c #2A67B5",
"M. c #226EB1",
"N. c #386EB7",
"B. c #2373B3",
"V. c #2979B5",
"C. c #337BB3",
"Z. c #3479B3",
"A. c #455B87",
"S. c #4C5B84",
"D. c #575B85",
"F. c #4B5890",
"G. c #71588B",
"H. c #456A84",
"J. c #487786",
"K. c #537581",
"L. c #587986",
"P. c #526C90",
"I. c #487799",
"U. c #667983",
"Y. c #706893",
"T. c #525EAC",
"R. c #4E72A9",
"E. c #706FAB",
"W. c #345BCF",
"Q. c #1F65D3",
"!. c #326FCB",
"~. c #3969EC",
"^. c #4A74CD",
"/. c #476AD9",
"(. c #616FD7",
"). c #4D73F0",
"_. c #A95E84",
"`. c #8D708D",
"'. c #AB6483",
"]. c #B0718F",
"[. c #8E71AA",
"{. c #AC70A8",
"}. c #CC6F8A",
"|. c #C76F94",
" X c #D67893",
".X c #F0758B",
"XX c #8E71D2",
"oX c #398197",
"OX c #2783AB",
"+X c #2C81AC",
"@X c #3A83AC",
"#X c #2C83B3",
"$X c #2787B8",
"%X c #3386B9",
"&X c #3495BC",
"*X c #488887",
"=X c #50928B",
"-X c #498399",
";X c #578399",
":X c #579897",
">X c #6B8C90",
",X c #67A393",
"<X c #4787A6",
"1X c #5799A9",
"2X c #4F8CB2",
"3X c #698FAE",
"4X c #55A3AC",
"5X c #71A8AB",
"6X c #1D8DD5",
"7X c #1988DA",
"8X c #1C8EDB",
"9X c #1690D7",
"0X c #1C92D6",
"qX c #1D91DC",
"wX c #2889C6",
"eX c #2896C8",
"rX c #3596C8",
"tX c #3890CF",
"yX c #238CD6",
"uX c #2693D8",
"iX c #2DA8D5",
"pX c #26A6DA",
"aX c #128EE7",
"sX c #1D94E3",
"dX c #1995E9",
"fX c #1695F2",
"gX c #2B8DE1",
"hX c #2096E3",
"jX c #239BE8",
"kX c #219FF1",
"lX c #1FA0F1",
"zX c #2BA7E8",
"xX c #22A1F3",
"cX c #28AAF4",
"vX c #22A6FC",
"bX c #23ABFF",
"nX c #26B2F5",
"mX c #25B4FF",
"MX c #26B9FF",
"NX c #4D90C9",
"BX c #5888D8",
"VX c #6D90D2",
"CX c #5986ED",
"ZX c #688BF0",
"AX c #7AA0EB",
"SX c #21C3F8",
"DX c #94918D",
"FX c #B1918B",
"GX c #9CA08F",
"HX c #B08BA5",
"JX c #DD9B99",
"KX c #F58C9D",
"LX c #F1AE92",
"PX c #D08CA4",
"IX c #EF92A5",
"UX c #EDC0A4",
/* pixels */
"SXMXMXMXMXMXMXMXMXMXMXMXMXMXMXMXMXMXMXMXMXMXmXmXmXmXMXMXMXMXMXMXMXMXMXMXmXMXMXMXMXMXMXMXiXuXiXpXpXnXMXMXMXmXMXmXMXMXMXmXMXMXMXMX",
"SXMXMXMXMXMXMXMXMXnXnXMXMXMXMXnXmXMXMXMXMXMXMXMXMXMXMXmXMXMXmXMXMXmXMXMXMXMXmXmXmXmXmXmXnXnXMXMXMXMXMXmXMXmXmXMXMXmXmXmXmXMXMXMX",
"mXmXMXMXmXMXMXmXcXiXpXnXMXmXnXpXnXmXmXmXmXMXMXMXmXmXmXmXmXmXMXMXmXmXmXmXmXMXMXmXMXmXmXMXMXMXmXmXmXmXmXmXMXmXmXmXmXmXmXmXmXmXMXMX",
"mXmXmXbXmXmXmXmXnXzXcXmXmXmXnXcXmXmXmXmXbXbXmXbXmXbXmXmXmXmXbXbXbXmXbXmXbXmXmXbXbXmXbXMXmXmXmXbXmXmXbXmXbXmXmXbXbXmXbXmXmXbXmXMX",
"bXmXbXbXmXbXbXmXmXmXmXmXbXmXbXmXmXbXbXbXmXbXbXmXbXbXbXbXbXbXbXbXbXbXbXbXbXbXbXbXbXbXbXbXbXbXbXbXbXbXbXbXbXbXbXbXbXbXbXmXbXbXbXnX",
"bXbXvXvXbXbXbXvXvXvXvXvXvXvXvXvXvXvXvXbXvXvXvXbXbXbXbXvXvXbXbXbXvXbXbXvXbXbXvXbXvXvXbXbXbXbXvXvXvXvXbXvXvXbXbXbXvXcXcXcXcXvXmXzX",
"zXcXcXvXvXvXbXvXvXvXvXvXvXvXvXvXvXvXvXvXvXvXvXvXvXvXvXvXvXvXvXvXvXvXvXvXvXvXvXvXvXvXvXvXvXvXvXvXvXvXvXvXvXvXvXcXzXtXiXtXiXzXzXtX",
"rXiXtXzXxXkXvXkXxXlXxXlXlXxXxXlXxXxXxXxXxXkXxXxXxXkXxXxXxXxXkXkXkXkXkXxXkXkXkXkXlXlXkXkXkXkXkXxXkXkXkXkXkXkXgXuXeXrXeXrXrXrXrX%X",
"&X&X&XrXrXhXdXjXdXdXsXjXsXdXjXhXjXsXjXsXsXsXdXdXsXsXhXhXhXsXsXsXhXhXhXhXfXfXfXfXfXdXsXsXsXuXsXsXhXhXdXhXuXwX%X$XwXwX$XwX$X#X$Xx.",
"#X+X#X+X$XyXeX%XyXqX0X6XyX0XyX8X0XyX6X8XqXuXuXuXqXqX8X6X0X6XyX6X8X6X6X8XsX4X,X4XrXwXuX7X7X0XqX0X8X8XsXyXwX#XC.:X` DX:X-XV.$X$Xj.",
"x.+X+Xx.#X#X+X+XwX7XaX7X7X6X6X6X6X6X6X7XyX!.l.d.!.0XyX0X6X6X6XyX6X6X6X8X4X' ) / ( ,XeX9X0XuX0XaXsX8XwX$X%X+XI.GX) _ ( ` >X;X<Xz.",
"x.+X+X+X+XOXx.%X%XwX%XyX7XaX9X8X6X6X0XyXm.o.O O 6 B @X0X0X6X8X0X6X0X7XsX2XW ) ( ~ 2XuXuX!.m.d.u.$X%X#X%X5.y Z HXGX_ f ^ / ( ;Xz.",
"+X+X+X+X+X+X#X@X>X_ _ ` :XwXaXuX8X0X0XyXm.#.o.o.@.x.yX0X8XqX0XqX0X8X0X9XqXuX&XNXsXdXqX!.o.6 O 6 V -X#X#X-.y H.U.` ( ^ ^ ( ~ -X3.",
"x.+Xn.+Xx.+X3.H.GX' _ J ( ` >X2XaXsXuXsX8X9XQ.yX8XfXaXdXfXfXsXyXqXsXdXlXdXdXfXdXaXdXaX!.p.o.o.@.2.x.V.V.OXOX4.I.>X( ~ ~ n.V.+X>.",
"j.x.x.x.x.5.* m >XGXJ   ^ ^ _ 2XaXdXsX8XsXdXjXhXgX4X,X4XtXjXuXsXsXuXyX!.6X7XhXhXqX8XsXhXwXV.x.C.<X:X>X-X#X#XB.#X@X<X@XV.y.V.V.>.",
"x.x.x.z.x.2.<.H.F ` ^ ^ ( ~ 1XrXsXuXyXdXdXyXjXgX,X) ) / ~ 1XuXdXuXm.o.O O O.I.uXdXdX8XwX$Xk.k.-X_ ) ) ( ~ -XV.y.y.i.$XV.z.z.x.>.",
"x.j.z.l.z.V.V.k.x.;X~ >XI.$X7XqXqXwXwXtXyX!.wXeX:X` _ W ,XrXhXsXyXm.o.O O +.I.wXyXqX0X#Xz.z.k.J.` ) ( W =Xv.l.x.x.k.x.V.z.x.x.a.",
"z.l.l.k.k.k.k.y.i.B.i.i.i.u.B.$XwXZ.Z.Z.Z.n.C.$XC.Z.2XrXsXdXyXwXwXV.N.h.s.b.C.Z.C.wXwXk.j.k.k.k.OX*X-XOXk.k.l.l.l.x.k.k.l.k.V.j.",
"k.B.B.V.B.B.B.B.B.i.i.i.i.B.B.B.B.Z.Z.n.n.Z.Z.Z.Z.V.C.!.$XwXC.Z.Z.C.C.wXZ.Z.Z.b.n.n.Z.l.s.j.k.j.f.f.y.y.k.z.k.k.B.V.V.V.y.V.B.t.",
"B.B.V.B.B.i.k.B.B.B.B.B.B.B.!.i.M.M.B.V.Z.V.V.Z.Z.Z.x.Z.b.b.b.Z.Z.Z.Z.l.Z.V.l.Z.Z.l.k.l.a.a.a.k.z.z.a.k.l.B.B.B.B.V.i.i.u.f.V.a.",
"B.B.B.B.B.B.B.B.k.f.f.k.M.M.M.M.M.i.u.B.f.l.Z.l.b.b.b.b.b.b.b.b.l.l.l.l.M.l.m.k.M.k.k.k.k.s.a.a.a.a.a.a.f.B.u.B.B.u.u.k.k.f.B.a.",
"B.B.M.M.B.k.M.M.f.t.f.t.f.f.7.d.u.u.i.u.s.s.h.g.c.c.v.h.c.b.h.c.h.h.c.h.b.s.b.b.l.h.l.h.k.s.p.>.>.a.a.p.r.u.t.t.t.t.t.t.t.f.B.a.",
"M.M.M.M.M.k.f.t.f.f.f.f.r.e.p.t.u.u.i.M.h.g.g.g.c.g.h.c.h.c.g.c.h.c.c.b.v.R.v.c.h.c.h.h.h.g.5.-.-.-.I.-.>.p.:.:.>.>.>.t.r.t.u.p.",
"f.M.M.M.u.r.r.f.r.d.r.e.r.t.t.u.u.i.M.p.1.g.g.g.g.g.g.c.h.g.g.g.g.c.c.h.c.g.h.g.c.g.N.b.c.J.K.D F F F F J.J.H.-.J.V V =.>.r.t.;.",
"d.r.r.r.r.r.r.p.e.d.7.r.f.t.u.u.u.M.d.1.g.g.$.g.1.g.1.g.g.g.g.g.g.v.g.g.g.R.g.g.c.g.g.5.L.L.K.K.K.K.A A *XK.V V J.V V V =.X.8.#.",
"0.d.e.r.d.d.e.e.p.d.r.t.t.t.u.t.t.p.@.g.g.g.g.g.g.g.g.g.g.g.g.g.g.g.g.g.g.g.g.g.g.2.J.K.L.L.K.A K.F A K.K.S H ` ` ` H G V =.g.#.",
"X.7.p.d.f.p.7.r.r.u.t.t.t.t.u.d.#.@.g.g.g.g.2.g.g.1.1.h.g.g.g.g.g.g.g.g.g.g.g.g.h.H.D L.L.L.F A A A F J.L.DXJX{ { ] [ ( ` ' >X@.",
"7.7.X.d.d.f.r.r.r.r.t.f.f.t.t.f.p.$.1.1.1.2.1.2.1.g.g.1.2.1.2.1.g.1.1.<.1.1.1.s.,.K.F K.L.K.A A F F V U.GXJXUXLXJXLX{ R } | L.7.",
"!.NXr.8.d.t.r.f.r.t.t.f.f.r.r.r.f.p.s.$.1.1.1.1.1.1.1.1.1.1.1.$.1.1.$.1.1.1.#.X.=.D L.F K.A A F A V C DXLXLXUXUXUXLX{ { } ) G @.",
"tXZXB.6.9.9.r.r.r.r.t.r.r.r.r.r.d.d.d.0.1.1.1.<.<.1.1.$.1.$.$.$.@.#.#.@.@.X.7.@.J.K.F F A C F F A F Z >XFXLX} { { { [ _ ` ` ~ y ",
"[.HXDXI.d.R.d.9.r.r.r.r.r.d.r.r.r.r.r.r.d.p.1.:.@.@.@.#.@.#.#...#.0.7.X.X.7.#.H.A A C A A A K.K.F K.G A F H ` P ].H H G V C G B ",
"LX} { [ ' GXm.9.d.r.w.w.r.e.e.r.8.d.8.d.:.:.@.:.:.@.#.0.0.X...#.0.7.X.X.7.7.,.H.A H.C A K.F F K.K.K.A B y M V C F C V A M F K.B ",
"LXLX{ { ] DXs.r.r.d.h.s.e.8.8.r.r.p.;.;.O.*.,.,.*.*.@.7.0.#.X.X.0.7...@.$.X.$.H.C V V V A J.F K.L.K.C B B A F F A B B B B F D r ",
"PXJXFXP P.I.s.w.6.R.HXE.w.r.p.:.;.&.=.y e *.y y *.*.@.#.7.7.X.#.p.@.$.A.D.F.A.S.e M V H.=.V V A K.A B F D F F G D F B D D Z L.R.",
"R.ZXh.6.8.w.8.6.d.HXPXI.w.r.#.O.y +.O.e =.y e e q e *.1.#.#.X.X.0.+.S.D.H.F.A.A.D.`.I J ` D ~ H V C C F F F F D L.F B B D B VXVX",
"^.CXm.6.r.p.g.e.E.IX{.0.8.w.8.O.e *.q *.=.y q 8 8 8 *.=.=.=.@.#.$.S.F.D.A.A.P.D.FXLX} { ] [ ' H y V A A D Z D F B b B D B m R.^.",
"R.ZX!...8.T.{.[.PXKXIXE.8.r.X.O.y *.*.=.*.q 8 8 8 e e *.*.*.*.$.A.D.S.S.A.A.S.`.LXLXUXLX{ } GX*Xw b B B B A F C A J.m m B A ;XR.",
"R.ZXq. .u.E.IXIXIXHXE.0.6.7.O.8 8 y y q y e q q *.*.e e q q +.A.c S.D.S.S.x x v `.FXFX[ P H 4X&X,.H.M N VX5XF H.VX3XM y -.VXVX^.",
"(.CX!.h.!.VXIXKX{.q...7.7. .> e e q 8 q q q 8 +.*.e e 8 8 q +.A.D.c c S.S.c A.7 7 S.k k z 7 OXpXeXiX*Xl 3XAXR.P.BXBX3.>.b.N.CXBX",
"CX^.^.).).VX X}.$.6.!.m.X.F.P.$.q q 8 8 y 8 8 q q e 8 8 0 0 7 S.S.x x S.x x x z x z 7 O 7 z +.&XpXpXoXr 1.CXVXBXZXBXz.j.n.>.b.s.",
"/.7.8.~.CXZX X{.W.!.).r.Y. X].t y H.q 9 q 8 6 e e *.9 0 &.O.w c z x x x x z x z z z < < 5.5.7 +XSXeXO.>.$X!.CXZXAXCXb.3.b.j.a.&.",
"8. .o.[.(.(. X{.).gX^.`.KX|.w l L `.9 0 O.0 6 q q &.9 O.+.&.O.7 z x x x x z 7 =.=.7 +.A.oXeXw 4.pX&.+.x.eXV.:.N.CXZXBXn.3.a.f.;.",
"+. .F. XXX(.}.|.).~.{..X X`.m _._.c 0 0 0 O.9 9 9 9 q q q &.9 9 w 7 z z c < 4 &X5.+.iX=.w &X+X3.OXH.NXC.NXtX....r./.ZXCXl.a.l.;.",
"[.`.Y. XXXW.'.]./.{..X.X}. X X}.K x z 6 0 q 3 1 ; : 9 3 > 9 q O.8 < w 8 , o < &X,.@XrX< o =.eXpX3.R.AXBXCXCX^.0.e.d.!.)./.k.a.:.",
"{.}.}..XG.$._.}.].Y '._.}.}.|.]._.L k 8 0 9 : : : ; ; 1 2 3 9 9 9 3 ; 3 9 $ ; OX+XeX&.o 7 +.3.iX3.7 ^.ZX).ZXZXN.%.>.e.W.).!.z.;.",
"W.{.R Y D.#._.R U k - z L _.`.D.P.].`.+.O.: ; 1 1 1 : 1 : ; ; 3 9 : - - t ,.: OXpX$Xo o 5.#XO.x.&.o %XgX(.).ZX^.O.>.%.#./.).!.@.",
"~.T._..XT.W._.Y F.O 8 K _._.DXP.[.PXHX>.> : ; 1 1 ; ; ; ; ; ; ; ; ; t : 9 OX3.oXiX&.o o +.$XOXOX6 < $X>.o./.)./.m.g.R.;X3X~.W.$.",
"W.o.G.}.E.(.U K A.v L _.G.'.IXJXIXHX,. .9 ; , ; 1 : ; ; - ; ; @ @ ; $XOX; &.OX3.OXt o o o j.pXOX&.z.>.e +.h.~.~.~.^.VX3X;X^.~.q.",
"~.Q.W._.T }.U v K _.G.:.Y.R .XKXIX[...: @ ; - ; : : ; @ @ @ @ @ @ @ &.eX$X%.$X$X$Xy.O.w q z.0X$Xx.>.+.c.v.3.l.^.~.~.)./.W./.~.W.",
"W.q.O v Y Y K v F. .X.G.Y U `.D.Y.R.;.> - ; : ; - @ @ @ @ 9 5.5.,.t ; > OXOX$XeXeXeX$XOXOXOXz.j.;.*.4.n.4.>.<X5XR.R.R.q.W.N.W.W.",
"7 o . + U L K v G.G._.Y L $.6.$.&. .X.O.- - - @ @ - 3 q ,.R.%X2X2X@X5.y - - : > > > 9 ;.c.c.g.4.2.v.n.v.j.g.3XDXH m f s j A A.w ",
"j < o + L T L T U Y U G. .6.T.].].v D.5 , @ . - 9 &.4.@X@X<X@Xv.n.@X@X@X3.> , . . @ O.5.v.v.v.Z.n.C.n.j.g.2X>XG Z Z b s s n G K.",
"G j & a K K v P L U U G.F.Y.PXIXKXJX].d p < 8 &.g.n.n.v.@X@X@X@Xv.v.4.c.v.c.&.8 q 4.@Xn.5.<Xv.n.v.v.l.C.2X>XU.m K.U.Z s j s m F ",
"G Z ! ! b r = t u H K L U }. X|.].'.K d d d K.Z H.c.4.4.5.4.5.5.4.v.5.3.,.,.,.>.v.c.j.c.1X4X:X! E u *X3X>XU.m n U.>XZ j j j j l ",
"Z B =X=XQ Q = = = ! :X>XY.v v d d i i d d d d k 5.v.,.4.,.&.&.;.,.>.,.&.&.,.2.c.v.j.>.-X:X:X=X! Q Q ! =XK.N j n Z G L.m j n m s ",
"Z m S =X! ! r = r u 4X4XoXV p + + i i i + + a I.%Xv.4.&.&.;.4.c.c.5.3.,.;.>.j.2.j.v.oX-.u u S u Q S S r * * j n j j G m j n m g ",
"m m b b ! *X! Q Q *X:X=X*X*X*Xm d i a i i i M v.%X@Xv.3.&.;.,.j.j.c.>.>.:.,.2.c.<X:X=XQ r r 2 & 2 & 2 & $ r K.m p j n j j m m j ",
"n n n s * r u ! ! ! S u *X*X=X:Xm + + a p p k =.H.<.@Xn.>.O.;.;.>.;.:.I.I.;X3X5X5X:X*X! S S u r $ $ & 2 r *X4X*Xj j j g j j m l ",
"s s m n s % % & & & # r *X*X*X4XD + + l *.p c 5.c H.n.c.;...;.,.5.I.L.L.G U.U.>X:X:X=X=X=X! ! r 2 r ! *X=X=X=X*Xb j n g s s j h ",
"s s n m n s % % % # X % t u u y % # a w 5.*.4.2XI.g.j.>.>.5.R.L.U.L.G G Z Z Z B V S u *X! u 2 2 *X:X:X:X:X*XS y % g n g s p j h ",
"g * s j n n h h g g * % 2 5 & # % % s c I.@X<X:X1X<XI.;X;X;XU.L.K.Z K.G Z Z G Z N h 4 & $ % X $ u *X=X*X*X-.r % % b b 4 4 g b g ",
"l s * 4 l n N B N h h p s % % * 4 g 4 h l C A J.=X=XL.>XU.K.Z H.Z Z Z c N n N l m h < # % < l % $ 1 t t r < # % g b 5 4 4 g n l ",
"l 4 4 4 5 l N l N n l h h 4 5 4 4 4 l l l h 4 5 r 5 M L.L.L.C N h * * 4 4 4 4 4 h < 4 5 l M M l < X $ X X X * 5 l 5 4 4 4 5 l 5 ",
"N l l g l N Z N l C N 4 4 N N b l b c l M Z Z l < h l P.;XL.Z h * 4 h M l 5 N N < l C C l M Z N n h 4 % % < l c l 5 l 4 4 l n N "
};
