/* XPM */
static char *result[] = {
/* columns rows colors chars-per-pixel */
"64 64 49 1 ",
"  c #CEA164",
". c #D3A466",
"X c #D9A767",
"o c #D5A867",
"O c #D3A769",
"+ c #D8A769",
"@ c #D6AA6B",
"# c #DBAD6D",
"$ c #DDB06F",
"% c #D6AE70",
"& c #DAAF71",
"* c #DDB372",
"= c #DFB976",
"- c #DFB779",
"; c #DFB879",
": c #E0AE6D",
"> c #E3B26E",
", c #E8B46F",
"< c #E4B472",
"1 c #E9B672",
"2 c #E5B876",
"3 c #EBBA75",
"4 c #E2B678",
"5 c #E4BB7A",
"6 c #ECBE7A",
"7 c #F0BC76",
"8 c #F1BF7A",
"9 c #E7C07F",
"0 c #EEC17D",
"q c #F1C37E",
"w c #F6CB7E",
"e c #E8BF80",
"r c #E7C181",
"t c #ECC482",
"y c #EEC986",
"u c #EFC988",
"i c #F2C682",
"p c #F8C685",
"a c #F3C985",
"s c #F9CC85",
"d c #F4CC8A",
"f c #F9CE89",
"g c #F7D187",
"h c #F8D186",
"j c #F5D08D",
"k c #FAD28C",
"l c #F7D88B",
"z c #F6D191",
"x c #FAD592",
/* pixels */
"lghhhhhsaiiiwwffdjdjjkkfiw0qqqqwwgdjfsiqqqwpphlyyyylsaqtqwqwqwaw",
"66655236iaiiipaae24445adaq0066qqafddappiqiiiit;==*%5iiiwytqtqipi",
">###X#@#*290522**$***#&5djdsddddat555560ttt62&&#$$$@2taddddddi6&",
",####$$$#@@@#@#$$>>,<<*@@5ttudjt5=2<***@%#@+##<<<>>$#*2596r5-+@#",
"1>::>:$>>::#$><>>,,1111<%oOO%*2=**<>>>$$:###:><21>,,>$<=**@+++#:",
"0<>>,,,,>,,1<1111113360652*&%O@#$>>:>>,<<4<1113111111311<<<4:<<<",
"fq6636366366690000090ytaattie62<<>>,1111111678qq0063373136687366",
"ksaaqqqiiiaaasaddasagjzdat966t66611333633668dddds00qq6q60iaapiai",
"5;ryudjgddytt5rtddzzuuur22*<#<58q0q06q8ieiiat5--epaaadaaadar625e",
"2$$*=55552***$*=;5ttrr52=<#:<###2iahdaddaa6&@o@oO&*5ttayt62*&##&",
"3<$$$$$$****<<$***=455=*<#><>:<##&2tt6954@OO*<<<#++@#&2252<<1:::",
"31,<<<<<1111,1<<<<44=2<>:>:>,1>1<*@@@#@OO+#431<,<<:<<<*<<<211<1<",
"q733661631,1,112112<4121133311,1<11:<<<<220506311111136111131133",
"sqqqqiq08331111366668668qqq867333136866qiiiaa00033376787633337qq",
"fasddjddai6667q6iiappaaapiqqaiqqqqqiaaai99tyyjdyi8qiiaaiqqqqiaaa",
"055599tdddaiqiidddzuait62<##26iaassda524<*<2<9ydddddddfddadddfdt",
"1<<$**===tygdayy5=*=22&&##::#:425652*><<12<2<*245tte55etuddtte52",
"01,122<$#@*55;%o@@$$#<$>>>,>>:#+@@##><<1111112&&#@@&##@&*224=&&2",
"q,,,1161>$@o@o@$$12563111,,<<1<12253333111111112<*<<2<>*##*<2511",
"w0076636622*<222600siq063316366eiiii00867333636q006663132<231336",
"kiit0aiit0606609taadddate8q68aaddfdjddiqqq0q0iasdaaaq863366686qq",
"00iyaiyauuiaaaasa64229adpaapdpee99trtydddaaaaar96r6tiaiqqqq0qiaa",
"<$*2=**=5uudddur-&***4=5eute64224222*=46etdt642<2-&&250aadaait62",
"2$$@#$*$%-;e95=&#*#$<&*#&&&###:<<<<<<$*#*-44*#<<<<<:@@@*=44-*#@#",
"<>>$:><<<#&#$$#$<>:>>$:###:##::><::<::<:><#><<<><<>><>@++O@@+@#:",
"3,>>><><<22<<,<>:>>>><><<<,:<<>>><><1,:<><<>,,,1133221<4<&:>:<>:",
"7,,,333600000611,,<11166766331,11,111333111111130tiat066736331,1",
"736600iaadsdaq00663600iiiiqi8833111368qq6q67660iajkdddddai8q8833",
"qqiadjjdjyr550qqqqiiaate650yaaq6666qdaddddaiqiayduttutute22366qq",
"saat99rr5;=*$#<6iaaa6-**##*<5tiaiaaddyttutttti9552;522;=**####:6",
"q<%@$**=2222<$#@#:&&####>:>###*5q095*#*%@@@@##$$*25512<<<<>:#XXO",
"#o@$*2=222<<<,,######<<><,>>>#@@#@@@##*<<*$###$<<<,<<<<1><,>>>:#",
"<$<<<11<1111,111,,<,<1133311<<>>###><<3666661<,,,,>1,,<113<1111<",
"w06666661313333111313600t0q6633211133600taq0063,1113336336666666",
"00qaiq0066668000qqqqqiiatiii006606069wiaddddaq86633600ttiiaataaa",
"<$5yjkdyiitaaaaddadddi52*250iadaaaddddytr5590aia8qqiysddddddddaa",
"3*#=5ryjjkzdddyrtyyr5-$*>>$*50dddddyr2=****#**2iddjzjzjuuuatre52",
"3<:<$*%=ertt5=******$<>>><<<&<255e52*$>221<<###&25tyrr55522222<*",
"3><<<<$$##****2<<<*<<>>>,<>><##<=**<*,<1111,<<:##%&%%*=<4424<<<<",
"7,>111222*222313<1111111,<1133222<><,1<31313111<<**<252633311111",
"q763376800033311163333367788q8iq66333666q86q66666666668800q66736",
"kiqqqqqiiqq0631367qq0qqqq8ii6666iiqiqqtiaddadudaiityiiaiadaaiiii",
"faaadaaaadaiqqqqqadddsaaiq6<#@@#*28eaddddzddddddadddddar05rtadad",
"652522*2*29yaaaadddur52<&#+@#::###+:-;555e5e552<=;2;42**##**2565",
"6<<*&#&$*%@$5ttdt9**&@@++@#:::>>>:&+++@$*--*<***$$$#&###:::<&*<4",
"7<,,<><<>>>$@@**#@%$#####<>>1,,:>>>>:#>$*<<<<21,>>>,<<<11,<<<><<",
"713,111,,>><*####*><,>>>133311>,,,111113233360633,111363111111,1",
"q63363636163133<2366361668qq86633368q6606iaaiiqpqqqqqq8e66771133",
"wqq8tiiaiit687768i80iiiaddddai66qiwytwaaaat6556iq0625tasat060800",
"fqaadzddjdddaqqi62-455tre6e6tadai9*$$=5954*#$*&#$#@o+#*5iaddadaa",
"xzkduutertttat6<###&##&###&##*=**@@$#$$$:<:4<>>####:$##@#2tddzzz",
"jte2-&*&***$##@+#:>><:###*<->#@o@#><>>>>:<1>><>:>1,1321<#@%%;etr",
"5*&#**<<<<<>###>><:>:,>><113311111131,,1<>1>,11,,1160061<,$$%&&*",
"2*&><>>>4111112111111,11133866076773331111313311,30iaat031<<<<*&",
"6<<<<1>1113366qqei8773368qqiqqqq00q77777367886336qidjzdi03611,<1",
"aqq86676888iaaadpaaiq8qiiqq6iadjjdsaaaqqqqiiiiiiiaddttudaaq0qqqq",
"<#2qqiiqiiq622;5556tasaiq2<&-2tdzzjkdaaaaaaattadjzdr55556t665665",
"+..@#*<=<#oo@#&=&#&*255*#&:<424euut95-****=*&#-ett52254&##+XO++@",
">XX.   . .o#><<<22<<###$<<11<<22552=$#@+@####:##***<<><:####XX++",
",>::###*<<22213636633233131331222=**>,><<<<<<222<*<><::<<:>:>>:#",
"7,,,1360iii06000tiii867333376636222111660900666666<311111,<1,1,,",
"q766qiaddddddddjdzddii868q8iitq0066600iaauadtauuyii0666666666667",
"awia0teettttuttttrttaaaiiaaaddddaaaaadauugjudzzdzddduaaaiitdiiii",
"a051*&-=2=44===2<4<4-6affdkzddduddae5-2==;;9tttuududddddddgddt05"
};
