/* XPM */
static char *result[] = {
/* columns rows colors chars-per-pixel */
"64 64 185 2 ",
"   c #141413",
".  c #1D1D1B",
"X  c #191916",
"o  c #3B0300",
"O  c #2B1D0A",
"+  c #21211E",
"@  c #242421",
"#  c #2D2D29",
"$  c #292925",
"%  c #31312D",
"&  c #3D3529",
"*  c #343431",
"=  c #3B3B37",
"-  c #431E09",
";  c #451A01",
":  c #5C1E04",
">  c #4E2406",
",  c #45220B",
"<  c #4E290F",
"1  c #49280B",
"2  c #55290B",
"3  c #552807",
"4  c #4D2D19",
"5  c #493619",
"6  c #5C3313",
"7  c #533617",
"8  c #712C14",
"9  c #6C3B16",
"0  c #64361A",
"q  c #472F21",
"w  c #473426",
"e  c #523A2F",
"r  c #68471C",
"t  c #7F4D1E",
"y  c #5D4521",
"u  c #44443F",
"i  c #5D4A37",
"p  c #684D24",
"a  c #7C4A23",
"s  c #6D5126",
"d  c #7A5B2A",
"f  c #735728",
"g  c #614830",
"h  c #7C4F34",
"j  c #6B513E",
"k  c #795438",
"l  c #464642",
"z  c #4C4C47",
"x  c #52524C",
"c  c #575750",
"v  c #5B5B55",
"b  c #735C4B",
"n  c #765A47",
"m  c #7B6847",
"M  c #62625C",
"N  c #766A54",
"B  c #7C7059",
"V  c #6B6B65",
"C  c #6F6F68",
"Z  c #75756E",
"A  c #7B7B73",
"S  c #7E7E7B",
"D  c #8B4B24",
"F  c #9C4B20",
"G  c #82512C",
"H  c #8C5C3E",
"J  c #8A5836",
"K  c #A25C2B",
"L  c #84632E",
"P  c #886429",
"I  c #996229",
"U  c #9E732F",
"Y  c #8D6C33",
"T  c #8B6638",
"R  c #936B37",
"E  c #9B7536",
"W  c #9D7739",
"Q  c #A5672F",
"!  c #B6682F",
"~  c #AB6D34",
"^  c #A1793A",
"/  c #B47935",
"(  c #856045",
")  c #93694B",
"_  c #9F774B",
"`  c #8A6952",
"'  c #816B5B",
"]  c #946D53",
"[  c #85725A",
"{  c #8B785E",
"}  c #937058",
"|  c #A47342",
" . c #927E6D",
".. c #B48436",
"X. c #C38239",
"o. c #F39D3D",
"O. c #F7A63C",
"+. c #A98548",
"@. c #BB8A4B",
"#. c #AB895B",
"$. c #85847C",
"%. c #88887F",
"&. c #9C8D7B",
"*. c #B8956B",
"=. c #AE8D75",
"-. c #C2A051",
";. c #E5A949",
":. c #F7AE4D",
">. c #FCB648",
",. c #EAAF54",
"<. c #EDB556",
"1. c #FABB53",
"2. c #FCBF5C",
"3. c #F5B354",
"4. c #C6A170",
"5. c #E2B579",
"6. c #F3BA74",
"7. c #FEC354",
"8. c #F8C75C",
"9. c #FFD25F",
"0. c #F2CA65",
"q. c #FAC861",
"w. c #FCD364",
"e. c #FEDB6B",
"r. c #FFD962",
"t. c #FDDD73",
"y. c #F7D97A",
"u. c #FFE16D",
"i. c #FFE472",
"p. c #8C8C82",
"a. c #8D8D8A",
"s. c #95948A",
"d. c #99998F",
"f. c #9F9F95",
"g. c #A8A189",
"h. c #A7A79B",
"j. c #A8A597",
"k. c #B5AE9B",
"l. c #B0AA95",
"z. c #B8B199",
"x. c #ADADA3",
"c. c #B2B1A5",
"v. c #BCB6A3",
"b. c #B5B5AA",
"n. c #BABAAC",
"m. c #B8B8A7",
"M. c #BBBBB1",
"N. c #DFBA8C",
"B. c #F7E091",
"V. c #C0C0AD",
"C. c #C5C5B4",
"Z. c #C4C5BB",
"A. c #CFC7B8",
"S. c #CCCCBC",
"D. c #C5C8B6",
"F. c #D4CAB6",
"G. c #CED0BF",
"H. c #D0D0BF",
"J. c #F9E6A5",
"K. c #F7E7BD",
"L. c #CFCFC1",
"P. c #CDD1C4",
"I. c #D3D3C3",
"U. c #D5D6C9",
"Y. c #DCDCCC",
"T. c #D7D9CB",
"R. c #DEDED1",
"E. c #E6DECA",
"W. c #DFE1D3",
"Q. c #E3E3D4",
"!. c #E6E6DA",
"~. c #E7E8DD",
"^. c #EBEBDC",
"/. c #F2EFDC",
"(. c #EEEEE1",
"). c #EFF0E5",
"_. c #F2F2E4",
"`. c #F5F5EB",
"'. c #F9F9ED",
"]. c #F5F8EC",
"[. c #F7F7F1",
"{. c #F7F9F4",
"}. c #FAFAF3",
"|. c #FDFEF9",
" X c None",
/* pixels */
" X X X X X X X X X X X X X X X X X X X X X X X X X X X X X X X X X X X X X X X X X X X X X X X X X X X X X X X X X X X X X X X X",
" X X X X X X X X X X X X X X X X X X X X X X X X X X X X X X X X X X X X X X X X X X X X X X X X X X X X X X X X X X X X X X X X",
" X X X X X X X X X X X X X X X X X X X X X X X X X X X X X X X X X X X X X X X X X X X X X X X X X X X X X X X X X X X X X X X X",
" X X X X X X X X X X X X X X X X X X X X X X X X X X X X X X X X X X X X X X X X X X X X X X X X X X X X X X X X X X X X X X X X",
" X X X X X X X X X X X X X X X X X X X X X X X X X X X X X X X X X X X X X X X X X X X X X X X X X X X X X X X X X X X X X X X X",
" X X X X X X X X X X X X X X X X X X X X X X X X X X X X X X X X X X X X X X X X X X X X X X X X X X X X X X X X X X X X X X X X",
" X X X X X X X X X X X X X X X X X X X X X X X X X X X X X X X X X X X X X X X X X X X X X X X X X X X X X X X X X X X X X X X X",
" X X X X X X X X X X X X X X X X X X X X X X X X X X X X X X X X X X X X X X X X X X X X X X X X X X X X X X X X X X X X X X X X",
" X X X X X X X X X X X X X X X X X X X X X X X X X X X X X X X X X X X X X X X X X X X X X X X X X X X X X X X X X X X X X X X X",
" X X X X X X X X X X X X X X X X X X X X X X X X X X X X X X X X X X X X X X X X X X X X X X X X X X X X X X X X X X X X X X X X",
" X X X X X X X X X X X X X X X X X X X X X X X X X X X X X X X X X X X X X X X X X X X X X X X X X X X X X X X X X X X X X X X X",
" X X X X X X X X X X X X X X X X X X X X X X X X X X X X X X X X X X X X X X X X X X X X X X X X X X X X X X X X X X X X X X X X",
" X X X X X X X X X X X X X X X X X X X X X X X X X X X X X X X X X X X X X X X X X X X X X X X X X X X X X X X X X X X X X X X X",
" X X X X X X X X X X X X X X X X X X X X X X X X X X X X X X X X X X X X X X X X X X X X X X X X X X X X X X X X X X X X X X X X",
" X X X X X X X X X X X X X X X X X X X X X X X X X X X X X X X X X X X X X X X X X X X X X X X X X X X X X X X X X X X X X X X X",
" X X X X X X X X X X X X X X X X X X X X X X X X X X X X X X X X X X X X X X X].'. X X X X X X X X X X X X X X X X X X X X X X X",
" X X X X X X X X X X X X X X X X X X X X X X X X X X X X X X X[.[.[.}. X X X(.U.Y.^._. X X X X X X X X X X X X X X X X X X X X X",
" X X X X X X X X X X X X X X X X X X X X X X`._.).`. X X[.[.[.[.{.{.}.}.}.}.`.U.U.T.(. X X X X X X X X X X X X X X X X X X X X X",
" X X X X X X X X X X X X X X X X X X X X X(.^.H.Z._.[.].[.[.[.}.[.}.}.}.}.}.|.}.^.Q.Y.(. X X X X X X X X X X X X X X X X X X X X",
" X X X X X X X X X X X X X X X X X X X X X_.Y.C.Q.[.[.'.'.'.[.[.}.}.}.}.}.}.}.|.}.(.R.!. X X X X X X X X X X X X X X X X X X X X",
" X X X X X X X X X X X X X X X X X X X X X^.I.Y.`._.'.'.].'.'.'.[.'.[.[.}.}.|.|.}.].!.Q. X X X X X X X X X X X X X X X X X X X X",
" X X X X X X X X X X X X X X X X X X X X X!.U.(.`.'.]._.`.`._.`.`.`.'.`.}.}.U.~.|.[.).Q.^. X X X X X X X X X X X X X X X X X X X",
" X X X X X X X X X X X X X X X X X X X X/.Q.Y._._.R._._.(._._._.`._._.'.!.V % l n.}.(.!.!. X X X X X X X X X X X X X X X X X X X",
" X X X X X X X X X X X X X X X X X X X X^.Y.W.'.h.% V !._.(.(././.(._.].V + # + % L.].!.U. X X X X X X X X X X X X X X X X X X X",
" X X X X X X X X X X X X X X X X X X X X!.T.!.Q.l . + c Q./.!.^.^.^.].b.@ + = v x A ^.^.I. X X X X X X X X X X X X X X X X X X X",
" X X X X X X X X X X X X X X X X X X X XT.I./.h.. @ @ X V /.!.!.^.^.(.x + d.x.p.$.c.!. X X X X X X X X X X X X X X X X X X X X X",
" X X X X X X X X X X X X X X X X X X X X XS._.$.@ l z u + s./.!.!./.b.$ c.s.* @ C f.!. X X X X X X X X X X X X X X X X X X X X X",
" X X X X X X X X X X X X X X X X X X X X X X Xn.s.C v V Z A Y.!.!.^.b.c.p.x # + %./.Y. X X X X X X X X X X X X X X X X X X X X X",
" X X X X X X X X X X X X X X X X X X X X X X X!.$.v   X M T.!.W.Q.Q.!.R.h.M.+ X %.^.I. X X X X X X X X X X X X X X X X X X X X X",
" X X X X X X X X X X X X X X X X X X X X X X X(.(.j.    p.!.W.Q.!.!.!.!._.^.s.p.U.U. X X X X X X X X X X X X X X X X X X X X X X",
" X X X X X X X X X X X X X X X X X X X X X X X X!.U.Z V U.^._.}._.(.|.}.}.}.}./.Y.I. X X X X X X X X X X X X X X X X X X X X X X",
" X X X X X X X X X X X X X X X X X X X X X X X X(.Q.!._.'.}.}.a.x z S `.|.|.}.^.I. X X X X X X X X X X X X X X X X X X X X X X X",
" X X X X X X X X X X X X X X X X X X X X X X X X X!.!._.'.|.Z.X # v % M.|.'.'.^.S. X X X X X X X X X X X X X X X X X X X X X X X",
" X X X X X X X X X X X X X X X X X X X X X X X X X X^.!.!./.Z.+ X + @ C.!.Q.^.!. X X X X X X X X X X X X X X X X X X X X X X X X",
" X X X X X X X X X X X X X X X X X X X X X X X X X X(.R.U.U.T.%.+ X s.Y.I.I.T.E. X X X X X X X X X X X X X X X X X X X X X X X X",
" X X X X X X X X X X X X X X X X X X X X X X X X X X XY.H.S.S.U.j.%.U.S.S.I.S.I. X X X X X X X X X X X X X X X X X X X X X X X X",
" X X X X X X X X X X X X X X X X X X X X X X X X X X X!.P.S.S.S.m.Z C.S.C.C.C. X X X X X X X X X X X X X X X X X X X X X X X X X",
" X X X X X X X X X X X X X X X X X X X X X X X X X X X^.R.U.L.M.$.$.%.h.n.n. X X X X X X X X X X X X X X X X X X X X X X X X X X",
" X X X X X X X X X X X X X X X X X X X X X X X XQ.Q.Q.Q.T.P.Z.h.b.S.n.j.C.Y. X X X X X X X X X X X X X X X X X X X X X X X X X X",
" X X X X X X X X X X X X X X X X X X X X X X X`.^.Y.P.F.N.4.z.v.n.S.C.H.Y.I.=.} ] ) ) J  X X X X X X X X X X X X X X X X X X X X",
" X X X X X X X X X X X X X X X X X X X X Xo.6.}.'.Q.5.:.>.O.*.U.^.'._.&.b ` H H J h R G  X X X X X X X X X X X X X X X X X X X X",
" X X X X X X X X X X X X X X X X X X X X8.w.E.{.}.Q.1.7.9.>.#.`.^.^.|. .4 ` ( h k k H a  X X X X X X X X X X X X X X X X X X X X",
" X X X X X X X X X X X X X X X X X X X1.9.J.}.'.}.E.~ / +.h [ ^.U.Y._.I.A._.k.' b n n  X X X X X X X X X X X X X X X X X X X X X",
" X X X X X X X X X X X X X X X X X X X9.t./.`.'.|.I.& w e g q v.R.U.Q.|.`.!.U.Z. X X X X X X X X X X X X X X X X X X X X X X X X",
" X X X X X X X X X X X X X X X X X X3.e.B.(.Q.!.'.s.q T -.@.3 k I.U.Y.^.^.L.S. X X X X X X X X X X X X X X X X X X X X X X X X X",
" X X X X X X X X X X X X X X X X X Xq.e.y.S.I.S.z.w Q e.i.| 1 { D.U.L.S.D.C.S. X X X X X X X X X X X X X X X X X X X X X X X X X",
" X X X X X X X X X X X X X X X X X Xw.t.0.N _ 0 F ! w.u.,.9 3 [ H.S.H.S.H.I.R. X X X X X X X X X X X X X X X X X X X X X X X X X",
" X X X X X X X X X X X X X X X X X Xw.e.0.T : o 8 <.u.<.G 6 2 [ I.S.S.H.L.I.Q. X X X X X X X X X X X X X X X X X X X X X X X X X",
" X X X X X X X X X X X X X X X X X3.e.e.t.0.D K X./ I 9 , > 6 l.H.D.S.H.G.I.Y. X X X X X X X X X X X X X X X X X X X X X X X X X",
" X X X X X X X X X X X X X X X X X2.e.t.t.e.7.I < - ; > < g g.S.S.A.U.W.S.G.I. X X X X X X X X X X X X X X X X X X X X X X X X X",
" X X X X X X X X X X X X X X X X X7.e.e.r.;.t , , , [ l.k.S.R.Y.Y.Q.^.Q.I.S.I. X X X X X X X X X X X X X X X X X X X X X X X X X",
" X X X X X X X X X X X X X X X X X X1.3./ 6 , - 7 z.}.|.`.R.R.Q.W.Q.Q.!.Y.S.Y.'.^. X X X X X X X X X X X X X X X X X X X X X X X",
" X X X X X X X X X X X X X X X X X X X9 < > O r  X`.}.}.|.].`.Q.Y.W.W.Q.Y.S.U.T.L. X X X X X X X X X X X X X X X X X X X X X X X",
" X X X X X X X X X X X X X X X X X X X X2 9  X X X).^.'.[.(.Y.(.`.^.Q.W.Q.v.#. X X X X X X X X X X X X X X X X X X X X X X X X X",
" X X X X X X X X X X X X X X X X X X X X X X X X X X(.^.Y.D.!.}.}.]./.W.C.+...U  X X X X X X X X X X X X X X X X X X X X X X X X",
" X X X X X X X X X X X X X X X X X X X X X X X X X X_.!.S.R.[.'._./.^.H.m P L f  X X X X X X X X X X X X X X X X X X X X X X X X",
" X X X X X X X X X X X X X X X X X X X X X X X X X X!.U.G.].]._.(.^.T.B p y 5 d  X X X X X X X X X X X X X X X X X X X X X X X X",
" X X X X X X X X X X X X X X X X X X X X X X X X X X XI.Y._._./.^.k.i 7 ..p 5 Y  X X X X X X X X X X X X X X X X X X X X X X X X",
" X X X X X X X X X X X X X X X X X X X X X X X X X X X X^./._._.m.O O y +.d s Y  X X X X X X X X X X X X X X X X X X X X X X X X",
" X X X X X X X X X X X X X X X X X X X X X X X X X X X X_.(._._.N 1 f d U L s d  X X X X X X X X X X X X X X X X X X X X X X X X",
" X X X X X X X X X X X X X X X X X X X X X X X X X X`.'.'.[.]._. X X Xp U d 5 d Y  X X X X X X X X X X X X X X X X X X X X X X X",
" X X X X X X X X X X X X X X X X X X X X X X X X X X^.(./.]._.~. X X X XY Y  X X X X X X X X X X X X X X X X X X X X X X X X X X",
" X X X X X X X X X X X X X X X X X X X X X X X X X XQ.T.T.Y.T. X X X X X X X X X X X X X X X X X X X X X X X X X X X X X X X X X",
" X X X X X X X X X X X X X X X X X X X X X X X X X X X X X X X X X X X X X X X X X X X X X X X X X X X X X X X X X X X X X X X X"
};
