/* XPM */
static char *result[] = {
/* columns rows colors chars-per-pixel */
"64 64 220 2 ",
"   c #CBAE65",
".  c #CBAF69",
"X  c #CCB166",
"o  c #CCB16B",
"O  c #D2B66A",
"+  c #CDB472",
"@  c #CDB67A",
"#  c #CFB97D",
"$  c #D6BB75",
"%  c #D9C278",
"&  c #48BCBE",
"*  c #59BEBC",
"=  c #6DBEB5",
"-  c #64BFBA",
";  c #69BFB9",
":  c #71BEB1",
">  c #59C1BE",
",  c #6CC0B7",
"<  c #63C0BB",
"1  c #77C3B6",
"2  c #1E8FCF",
"3  c #1F97CF",
"4  c #1E8CD4",
"5  c #1484DE",
"6  c #1D8ADC",
"7  c #1E94D2",
"8  c #1E9CD4",
"9  c #1D94DC",
"0  c #1D9BDB",
"q  c #1FA7CF",
"w  c #1FB5CE",
"e  c #1EA4D4",
"r  c #1EACD4",
"t  c #17B7D2",
"y  c #1DB5D3",
"u  c #16BAD6",
"i  c #1CBAD5",
"p  c #1CB4D8",
"a  c #15BDD9",
"s  c #1BBCD9",
"d  c #29B8CB",
"f  c #2DBBCC",
"g  c #3CBDC5",
"h  c #34BCCC",
"j  c #3CBECB",
"k  c #21B4D2",
"l  c #23BBD4",
"z  c #2BBCD4",
"x  c #23BED8",
"c  c #32B9D3",
"v  c #33BCD3",
"b  c #3CBCD4",
"n  c #1486E2",
"m  c #158BE3",
"M  c #1B8EE3",
"N  c #1792E4",
"B  c #1C94E5",
"V  c #1D98E5",
"C  c #1995E8",
"Z  c #2295E6",
"A  c #289AE7",
"S  c #2B9AE6",
"D  c #329EE7",
"F  c #33A3EB",
"G  c #3AA8ED",
"H  c #3EB4F7",
"J  c #44BDC3",
"K  c #49BDC2",
"L  c #42BDD2",
"P  c #48BBD2",
"I  c #41ADEF",
"U  c #47B5F3",
"Y  c #4CB9F3",
"T  c #44BAFB",
"R  c #4CBCFA",
"E  c #53BDF5",
"W  c #5EBBF7",
"Q  c #53BEFB",
"!  c #59BFFA",
"~  c #66BEF7",
"^  c #1DC0D8",
"/  c #3AC1CA",
"(  c #25C1D8",
")  c #31C0D5",
"_  c #3BC1D9",
"`  c #3DC2FF",
"'  c #3FD8FF",
"]  c #4FC1C3",
"[  c #53C1C4",
"{  c #5BC3C0",
"}  c #63C3C2",
"|  c #45C6FF",
" . c #4CC1FD",
".. c #4CCCFF",
"X. c #5BC2F7",
"o. c #54C2FC",
"O. c #5BC5FC",
"+. c #52CDFF",
"@. c #5DC9FD",
"#. c #4CD3FF",
"$. c #45DBFF",
"%. c #4CDCFF",
"&. c #54D4FF",
"*. c #56DDFF",
"=. c #59DDFF",
"-. c #64C5F7",
";. c #63C5FB",
":. c #6BC4FA",
">. c #64CAFD",
",. c #6BCDFC",
"<. c #77C7F7",
"1. c #73CEFB",
"2. c #7CCCF9",
"3. c #6ED1FD",
"4. c #68DDFE",
"5. c #74D3FD",
"6. c #7CD4FC",
"7. c #72DBFC",
"8. c #7CDAFE",
"9. c #4FE1FF",
"0. c #53E1FF",
"q. c #5CE0FF",
"w. c #67E3FF",
"e. c #79E4FF",
"r. c #B3BF9D",
"t. c #95BEA4",
"y. c #98BCA2",
"u. c #CEBB84",
"i. c #CFBC88",
"p. c #D1BB81",
"a. c #D1BF90",
"s. c #ADC19F",
"d. c #B3C19D",
"f. c #8CC0A7",
"g. c #8DC2AC",
"h. c #97C2A7",
"j. c #94C1A9",
"k. c #83C3B5",
"l. c #8BC5B4",
"z. c #81C2BA",
"x. c #91C4B2",
"c. c #A6C4A7",
"v. c #ADC2A2",
"b. c #A6C5AC",
"n. c #ABC6AB",
"m. c #B3C3A4",
"M. c #B7C5A6",
"N. c #D5C18A",
"B. c #CDC396",
"V. c #CDC49B",
"C. c #D2C394",
"Z. c #D2C69C",
"A. c #D5CA9B",
"S. c #C4C6A4",
"D. c #C5C7A7",
"F. c #CCC6A4",
"G. c #CBC9A6",
"H. c #C5CAAA",
"J. c #CDC9AB",
"K. c #D1C7A1",
"L. c #D3C9A5",
"P. c #D4CBAB",
"I. c #D8CBA8",
"U. c #D9D1AF",
"Y. c #D5CEB2",
"T. c #DACFB2",
"R. c #D6D0B6",
"E. c #D8D2B8",
"W. c #E2D6B0",
"Q. c #85CAF7",
"!. c #8BCBF5",
"~. c #83CEF8",
"^. c #92CDF5",
"/. c #9BCEF3",
"(. c #94CFFA",
"). c #82D5FB",
"_. c #8AD4FA",
"`. c #82DBFD",
"'. c #95D2F5",
"]. c #9BD3F5",
"[. c #9AD6FB",
"{. c #ADD2EF",
"}. c #B4D5EF",
"|. c #B9D6EE",
" X c #BDD8EF",
".X c #A3CFF4",
"XX c #A4D3F3",
"oX c #ACD4F2",
"OX c #A7D8F8",
"+X c #B6D9F3",
"@X c #B5DAF4",
"#X c #88E5FE",
"$X c #9AE7FF",
"%X c #A5EAFE",
"&X c #B7EBFE",
"*X c #BCF1FF",
"=X c #C4D7EC",
"-X c #C4DAED",
";X c #CCDCED",
":X c #D4DEEA",
">X c #C1DDF6",
",X c #D5E2EC",
"<X c #DAE1EA",
"1X c #CAE5F9",
"2X c #D7E7F7",
"3X c #DBEBFB",
"4X c #C9F2FF",
"5X c #D8F4FE",
"6X c #E3E3EB",
"7X c #E4EAF4",
"8X c #E5EBF6",
"9X c #EEF1F6",
"0X c #E3F4FE",
"qX c #EBF3FB",
"wX c #E8F8FE",
"eX c #F2F5F6",
"rX c #F3F6FA",
"tX c #F9F6FB",
"yX c #F5F9FC",
"uX c #FBFBFD",
/* pixels */
"0.0.0.0.0.0.0.0.0.0.9.0.0.0.0.0.0.0.0.0.%.9.&XuXuXuXuXuXuXuXuXuXuXuXuXuXyXwXwX4Xe.9.9.9.9.9.9.0.0.9.0.9.0.0.9.9.9.9.9.9.9.9.9.9.",
"0.q.=.0.0.*.=.=.0.*.*.0.=.*.*.*.*.0.0.0.$.=.*XuXuXuXuXuXuXuXuXuXuXuXuXuXyXwX5X4Xw.' 9.9.0.0.0.0.0.0.0.0.0.0.0.0.0.0.0.0.0.0.0.0.",
"0.0.=.=.*.0.=.=.=.*.0.*.=.0.=.0.0.*.=.*.%.$.e.wXuXuXuXuXuXuXuXuXuXuXuXyXwXwXwX5X#Xw.0.%.9.9.9.0.=.0.0.0.0.0.0.0.0.9.0.0.0.0.0.0.",
"0.=.*.*.*.*.=.=.=.*.*.=.*.*.*.*.*.*.*.=.*.%.#XwXuXuXuXuXuXuXuXuXuXuXyXwXqXqXuXuXwX4X4X%Xw.q.%.*.0.0.0.0.=.0.0.*.9.9.0.*.0.0.0.0.",
"*.*.*.*.*.&.=.=.*.=.*.=.=.*.*.*.=.=.=.*.%.4.0XuXuXuXuXuXuXyXuXuXuXuXqX5XqXuXuXuXuXuXuXyX0X%X*.' =.0.0.*.=.*.=.%.4.=.' $.0.=.*.*.",
"&.&.=.&.=.&.&.&.&.=.&.*.*.*.*.&.*.=.*.%.$.%XuXuXuXuXuXuXuXuXyXyXyXrX0XwXyXuXyXuXuXyXuXuXuX0X$X*.$.*.=.=.=.%.' 7.4X$X=.*.=.0.=.0.",
"#.#.&.&.&.&.&.&.&.&.&.&.=.&.&.&.*.&.#.' 8.5XtXtXyXtXrXrXeXrXrXrXrXqXeXyXtXtXyXyXtXrXrXeXuXuXrX&X=.#.=.=.*.*.*.%XuX0X5X&X4.$.%.0.",
"3.#.| +.+.&.&.&.&.&.&.&.&.&.&.&.&...+.`.2XtXrXtXyXtXeXrX9X9XrXrXrXrXtXrXtXyXyXyXyXyXyXyXyXyXuXrX$X&.%.&.&.e.&XqXyXyXuXyX%X*.#.*.",
"1X[.3...| +.+.+.+.o.+.+.+.+.+.&...+.[.1X3X3X0XqXeX9XeXeXqX9XeXrXrXyXyXeXeXeXeXeXeXeXeXeXqXqX3X3X$X&.&.&.>.&XtXeXqXqXyXtX3X*X`.%.",
"<X7X@X@.` | o.R |  . .+.+.o.o.+...>.[.OX[.OX1X3X3X3X8XqX8X8XeXeX9X9XeX9X9X9XqXqXqXqX8XqXqX0XOX5.&.#...+.).1X9XqXqXqX9XqXqXqX1X#X",
",X6X,X/.W T T Q <.O.T T  .R R  .R  .o.O.>.:.Q..X+X+X|.>X1X,X7X7X7X2X7X7X8X2X1X2X2X2X8X8X3XOX>.| ..+....._.1X3X0X8X3X3X3X5X8XqX0X",
":X;X:X=X.XQ.~ 2.{.].;.T T T R R R R T T R T R ! <.~ <.^./.oX X;X:X;X:X<X;X.X!.(.(.OXOX.X).:.R  .o.o.| | [.8X<X<X2X1X1X<X7X7X7XrX",
"|.|.{.-X:X:X=X|.;X=X.XQ.~ Q R R R Q R R R R T T R R W W ~ ~ <.Q.!.!.{.|..X~ Q Q Q ! ;.! T R R R T R T W }.<X<X:X<X,X,X6X6X<X2X0X",
"^./.oX-X6X6X:X:X;X-X{.oX/.:.Q Q o.Q Q Q Q Q Q Q R R R T R R U Q Q W <.Q.~ Q R T R R H T T T R Q R R Q !.|.=X:X<X<X6X6X6X,X;X;X1X",
":.2.+X:X:X:X-X-X XoX.X.X.X!.:.o.Q o.o.! Q o.! Q o.! Q Q o. .R Q Q o.! Q Q Q Q Q Q R Q ! Q T R Q Q R ~ /.}.=X:X<X<X<X<X<X,X-X}.+X",
"o.>./. X>X+X}.|.|.oXXX^.^.!.2.;.O.o.O.o.O.O.O.o.o.o.o.! o.O.O.o.o.;.o.Q Q o.Q o.R Q Q.^.<.:.;.Q  .R O.Q.{. X:X,X;X X-X:X:X;X X+X",
";.;.2./.XX].(.].oXoX].2.1.2.2.:.;.O.;.;.O.O.o.O.O.O.@.O.O.O.O.O.o.O.o.O.O.O.O.;.O.<.'.XXXX].!.-.o.o.O.1.!.^.XX}.oXXX}.|.|.-X;X&X",
",.,.,.6.~.2.2.2.Q.Q.1.,.>.:.1.,.:.>.>.>.>.O.@.@.O.O.O.>.O.O.O.O.@.@.;.O.O.O.2.'.XXoXoX@XoXXXXX].'.!.2.-.O.-.<.<.Q.'.XX{.{.}.|.+X",
"1.5.1.,.,.,.,.,.,.>.>.>.>.>.,.1.,.,.,.>.,.2.'._.>.O.>.>.O.O.>.O.@.O.;.@.O.@.,.].,X<X-X-X}.XX].XXoX/.Q.-.O.O.X.@.@.2.'.].oXXX].[.",
"2.2.1.1.1.,.,.>.,.>.,.,.,.1.1.5.5.,.,.1._.@X;XoX).,.>.@.>.>.>.>.>.,.>.>.>.@.O.,.].-X,X,X-XXX!.6.2.1.,.>.>.@.@.X.@.:.<.~.!.!.~.8.",
"2.6.6.5.5.2.5.,.,.3.,.5.1.2.6.6.6.7.).].XX@X X%X'.).,.>.3.>.>.,.,.,.,.,.,.,.@.@.3.6.].oX].).,.>.>.>.>.,.,.>.,.,.1.1.1.,.,.,.5.6.",
"6.).6.6.).6.6.5.5.5.5.5.6.6.).).)._.].XX[.'.XXoX].6.,.3.3.>.>.,.3.5.5.5.,.,.,.,.>.>.3.3.>.>.>.>.,.1.1.1.1.1.5.2.2.6.5.1.1.1.5.8.",
"6.6.6.).).).6.6.6.6.8.6.6.6.`.).).)._.).6.6._.}.[.6.3.3.3.>.3.3.,.3.1.3.3.3.,.1.7.1.3.>.>.3.,.,.,.1.6.~.).6.).2.6.6.2.5.2.6.~.`.",
").6.6.6.6.6.).6.6.6.).`.).).)._.).6.6.6.6.5.8.).6.3.3.3.3.3.3.3.3.3.3.,.3.3.1.5.5.6.6.5.5.3.3.3.5.5.6.).).).).).2.6.6.6.6.6.6.`.",
").).6.8.6.6.6.8.6.8.).).).).`.).)._.).).6.6.6.5.3.3.3.3.3.3.3.3.3.3.3.3.3.3.5.5.6.).).).6.6.5.3.3.5.6.6.6.6.6.6.6.6.6.6.5.2.6.`.",
"`.).).`.).6.6.5.6.6.8.6.).`.).).).).).8.6.6.5.7.3.3.3.7.3.3.7.3.3.3.3.3.7.5.6.).).).).).).).6.5.5.5.5.5.5.6.6.6.6.7.6.6.6.6.6.#X",
"`.`.`.`.`.8.8.6.6.8.`.`.`._.`.`.).).8.6.6.8.8.7.7.3.7.5.3.7.5.7.7.3.7.5.5.6.6.`.).8.).8.`.6.6.6.5.5.5.5.5.6.5.6.2.2.7.5.).).).).",
"-.,.,.3.5.5.5.1.5.6.8.8.8.8.`.`.#Xe.8.8.8.8.8.8.8.8.8.6.8.8.8.8.8.8.6.8.8.`.`.`.`.).8.`.`.6.8.8.6.8.8.6.6.8.6.8.7.7.5.6.8.).).#X",
"S S D F D F G I I I I U U U U Y Y Y o.E E X.X.X.O.;.>.>.,.,.,.>.,.3.3.3.7.5.5.8.6.7.8.8.`.8.8.#X`.`.`.`.`.`.`.`.`.8.`.8.`.#X#X#X",
"5 5 5 5 5 n n M m m B B C m C B B 9 B V V V V Z Z A A A S S D S F F F F F G G G H I U Y R U U Y E E E X.X.O.O.-.-.-.>.,.,.,.,.7.",
"6 6 6 6 n M M M B N B B C C B B N N N N N N B N N M m M 6 6 m m 5 N m n m m m m N N N C N B N B B B B Z Z B B Z B A S S S S D D ",
"4 4 6 4 6 4 6 4 B B B B V V B B B B B B B B B B B B B B N N B M B B M C M M M m B N B N N 9 N N B N C C N m M M n 5 m 5 5 5 4 5 ",
"2 2 2 4 2 4 4 4 7 7 6 0 9 0 0 V B 0 9 B 9 B B N B V V B Z B B B M M M Z M B M Z Z B B Z B B Z B B V V V B Z B B 6 6 6 6 n 6 6 n ",
"3 3 3 3 3 7 7 3 7 3 8 0 0 8 0 0 8 8 0 0 7 7 7 0 0 9 0 0 0 B 0 B 9 9 9 9 6 9 9 9 9 9 9 B 9 9 9 0 Z 9 0 9 9 8 7 6 4 4 4 4 4 4 4 M ",
"e 3 3 e e 3 3 e 8 8 8 e e e e e e e e 8 0 8 8 8 8 8 e 0 8 8 0 e 8 e e 0 8 0 0 8 8 8 0 0 8 0 0 0 e 0 8 8 7 7 7 7 7 2 2 3 2 2 4 4 ",
"q e r e e q e q e e e r e r e r r e r e e e e e r e e r e e e e e e e e e e 8 e e e 8 e e e e e e e e 8 e 8 e 3 7 8 8 3 3 3 7 0 ",
"r r r r r r q r r r r r p r r r r r r r r r e r r r r r r r r r e r e r r r r r r e r e e r r e r e r e e e e 3 8 e e q e e 3 e ",
"y r r y r r w r y t y y y k p s y p p p r p p r p r r p p p k r r r p r p r r r r r r r r r r r r p r r r p r q q r q q e q r r ",
"p w w y r y r y w i y y s s s y p y t y y y s s s p p y i i y p p p s s p y y k p k p p k k k p l p p p k k p y r r q r r r q t ",
"k k r k w k k y y k k i k s y i s s y y y y y y k y s y y y y i p s i s s x s p i y k l p p y i k k x p p p k p t w w r t r r p ",
"k k k k k k y w k y w y i i i i i i i y y y y y w y y y y y y i i s y y y i y y y y y y y i i y i l k i i y y w r w w w r w r t ",
"s y y y t y y y y t y s t s u s s s i s i i i y y i i y t s i s s y p s i i l s i l i y k i l y i i i i i y y w r w r y t r k i ",
"x l k k k k k k k i i s i i i s i s s s i s i i i s s s i s a s p s u u s s t s s i i i i i i i i i i i i k w i w w y w y w w u ",
"b v c c f c c h v z z l z z ) ) v v c z l l l i i x l x z ) ) v c c b v v z z z k l i i i x i i i x i x i i w i w y w y w y t s ",
"( l l d d k l d l l l l l l z z z z z z z k i i x l ( ) ) _ b b b L P L L L L b v z l i s x i i i i l i i l i i w k w i y w k x ",
"a t t t p t i i i s w i t s s u a i i t i i i i i i ^ ^ i l i s p s i s i l i l l l l i i i i x i i i i i i w i i i w w w y l x ",
"^ w i i s i s s i ^ i i i i s s s s t i i i ^ s s a a ^ a a a a s a a a s a u s s s y i y i i i ^ i i i i w t t i i i w i y i s ",
"( w w l i i l k k x k l l l l z z f z z l l x x x i l z ( ( x x ( ^ ( ( x x i i s s s i i i i y i i l i i i i i i i i w i i t u ",
") d d d f d f f f f f f f f f h b j j b b h z v ) f f / j L b h f ) ) ) z ) ) z ( i x i x k i k d i i w y k z c l x i i i d w t ",
"[ > g > & ] ] g J g J g g g g g g L g g J g ] / / / g / / h h g g h / / / / / b h ) f h f f f h f f f d d h h h h f f f f d d d ",
"1 , = = , , < , , < < , ; * ; - } } ; K K } } } } } } } > > > > > > > > > > { K > ] [ ] ] K K P J & > g K K K J K K K & & & & & ",
"c.y.f.f.j.f.f.j.f.f.f.j.g.g.l.t.z.t.t.t.x.h.x.x.l.l.x.l.l.g.k.l.g.k.k.1 k.k.1 k.z.1 1 1 1 1 = ; < , , , , , ; , = = 1 : : : : < ",
"M.d.d.m.v.d.s.s.r.r.m.v.v.c.s.v.m.n.M.M.M.M.m.m.M.M.M.n.n.n.n.n.n.v.c.c.n.n.b.n.n.n.b.n.b.b.b.t.h.h.h.j.h.h.t.j.h.t.h.y.y.t.t.t.",
"W.I.G.H.G.G.G.H.S.D.D.F.S.S.S.D.D.D.S.D.D.D.D.D.H.Y.G.D.J.J.S.S.S.M.H.H.H.J.H.H.H.M.H.H.M.D.D.M.d.d.d.d.d.m.m.m.m.m.m.m.r.r.r.r.",
"W.A.A.A.A.P.L.A.I.P.P.I.L.L.L.P.P.F.J.J.J.J.P.P.Y.T.T.R.P.L.G.L.A.P.P.P.P.P.Y.E.E.E.E.R.Y.P.P.J.J.J.J.D.G.J.J.J.P.J.J.J.J.J.J.L.",
"A.N.B.A.A.A.A.B.C.Z.A.Z.A.Z.Z.C.Z.L.a.a.a.K.K.F.P.P.R.Y.J.A.A.B.B.B.V.A.F.L.J.J.Y.J.Y.Y.P.P.J.J.L.P.Y.U.T.T.T.I.L.L.Z.L.L.L.Z.A.",
"W.I.L.P.U.P.P.G.L.L.L.L.L.L.L.L.K.Z.Z.a.K.K.V.V.V.V.L.Z.V.B.V.V.V.B.B.B.V.V.F.F.K.V.a.V.a.S.a.F.V.V.K.L.L.L.V.F.Z.Z.L.L.Z.Z.Z.C.",
"W.U.R.R.P.Y.R.R.P.U.Y.Y.P.P.R.R.T.P.P.Y.P.P.Y.Y.P.G.P.P.G.L.P.I.P.J.P.P.P.J.Y.P.Y.P.Y.Y.P.Y.I.J.P.I.L.P.I.P.P.P.Y.Y.Y.T.P.T.P.U.",
"N.N.# @ + # B.a.p.p.i.i.# @ # N.Z.Z.a.I.Z.K.I.I.P.P.P.L.L.I.C.Z.C.C.N.N.C.B.a.a.a.C.I.P.Y.Y.Y.Y.P.J.P.E.R.E.E.Y.P.I.Z.Z.Z.K.L.U.",
"O O       X . o . . o . X       . + + o + + + + @ # # # @ O o O X X X X . .     . o . + @ u.i.i.u.u.i.a.Z.Z.a.u.# o   o + o o $ ",
"$ O O . o o o o o o o o o o o X . . . . . .   .       .       .   o o . . . . o               .   . . . X o       X           X ",
"$ O . . o o o o + o o o o o o o o o + . o o o o O . o . o o o o O o o o o o o o o o o o o . o . . o . . o o o X o o o o o o . O ",
"$ o O . o o o o o o X o o o o o o o o o o o o o o o o o o o o o . . o o o o o o o o o o o o o o . + . + o o o o o o o o o o . + ",
"% O o + + o o + o o o + o o o o o o . o o o o o o o o o o o o o . o o o o o . o o o X o o o o . . . . . o o o o X o o o o o . o "
};
