/* XPM */
static char *result[] = {
/* columns rows colors chars-per-pixel */
"64 64 199 2 ",
"   c #1F378B",
".  c #1F398C",
"X  c #1F3D92",
"o  c #20368B",
"O  c #21398C",
"+  c #203D93",
"@  c #1F439B",
"#  c #234194",
"$  c #2B4797",
"%  c #20449B",
"&  c #1F4AA4",
"*  c #1E4BA5",
"=  c #1F52AD",
"-  c #1F56B2",
";  c #1F59B5",
":  c #1E5DBB",
">  c #214BA5",
",  c #204FA8",
"<  c #2053AD",
"1  c #2056B2",
"2  c #2159B4",
"3  c #295AB5",
"4  c #205FBD",
"5  c #1F61BE",
"6  c #2162BE",
"7  c #1F65C4",
"8  c #1F68C7",
"9  c #1F6BCB",
"0  c #1E73D2",
"q  c #2064C2",
"w  c #2B67C0",
"e  c #2169C7",
"r  c #2B6BC3",
"t  c #226CCB",
"y  c #2B6ECB",
"u  c #326CC1",
"i  c #2570CD",
"p  c #3272CA",
"a  c #2274D2",
"s  c #2B76D4",
"d  c #227AD7",
"f  c #2B79D4",
"g  c #247DDC",
"h  c #297CDA",
"j  c #357AD4",
"k  c #407CCE",
"l  c #2480DE",
"z  c #2A81DC",
"x  c #3383DC",
"c  c #3A86DC",
"v  c #2585E4",
"b  c #2A85E4",
"n  c #2589E6",
"m  c #2C8AE5",
"M  c #268BEA",
"N  c #2A8CEA",
"B  c #348AE4",
"V  c #388BE3",
"C  c #318FEA",
"Z  c #2693EF",
"A  c #2B93EE",
"S  c #3D91E3",
"D  c #3494EC",
"F  c #3994EB",
"G  c #3D9BEF",
"H  c #218FF0",
"J  c #2695F3",
"K  c #2C95F1",
"L  c #269AF6",
"P  c #2B9AF5",
"I  c #269AF8",
"U  c #269AF9",
"Y  c #3295F0",
"T  c #339DF3",
"R  c #3C9DF1",
"E  c #33A1F4",
"W  c #3DA5F3",
"Q  c #3EA8F4",
"!  c #418FE2",
"~  c #4596E7",
"^  c #439DEE",
"/  c #439EF0",
"(  c #44A3EF",
")  c #4BA3EF",
"_  c #4DAAEF",
"`  c #50A5EF",
"'  c #55ACEF",
"]  c #5BAEEF",
"[  c #57B1EE",
"{  c #5CB2EE",
"}  c #43A4F1",
"|  c #4AA4F0",
" . c #43A9F3",
".. c #4DAAF0",
"X. c #53ACF0",
"o. c #5BADF0",
"O. c #56B1F1",
"+. c #5AB2F0",
"@. c #60AEEF",
"#. c #63B2ED",
"$. c #6DB5EC",
"%. c #6FB8EB",
"&. c #7DB5E6",
"*. c #7EBBE7",
"=. c #73B6EC",
"-. c #7BB4E9",
";. c #74B8EA",
":. c #7DBAE9",
">. c #6FB6F1",
",. c #7EE7FF",
"<. c #7DE9FF",
"1. c #83B7E5",
"2. c #89B7E5",
"3. c #84BAE6",
"4. c #8CBDE5",
"5. c #82BBE9",
"6. c #8ABCE8",
"7. c #92BEE4",
"8. c #98BFE5",
"9. c #8FC2DD",
"0. c #94C4DC",
"q. c #9BC6DC",
"w. c #9ECADD",
"e. c #A1C7DC",
"r. c #A4CBDC",
"t. c #ABCDDC",
"y. c #B2CEDC",
"u. c #B9CFDC",
"i. c #A5D0DE",
"p. c #ADD1DC",
"a. c #B3D1DC",
"s. c #BCD3DC",
"d. c #87C0E1",
"f. c #8CC1E2",
"g. c #93C1E3",
"h. c #9AC5E3",
"j. c #96C9E4",
"k. c #9CCAE4",
"l. c #97CDEE",
"z. c #9CCDEC",
"x. c #9ED4F5",
"c. c #9DD3F8",
"v. c #A4CDE3",
"b. c #ACCEE1",
"n. c #A2CFEB",
"m. c #B2CFE1",
"M. c #A6D1E2",
"N. c #ABD2E1",
"B. c #A5D1EA",
"V. c #B4D3E2",
"C. c #BBD5E1",
"Z. c #B9D9E4",
"A. c #B5DBEB",
"S. c #BBDCEB",
"D. c #A2D5F5",
"F. c #A9D8F2",
"G. c #A6DCFD",
"H. c #A9DEFD",
"J. c #B4DBF2",
"K. c #B6DEF8",
"L. c #83E9FF",
"P. c #8BE9FF",
"I. c #94EAFF",
"U. c #9CEBFF",
"Y. c #BFE1EB",
"T. c #A5E4FF",
"R. c #ABE4FF",
"E. c #A4EAFF",
"W. c #ABE9FF",
"Q. c #BBE2F3",
"!. c #B4E4FD",
"~. c #BAE2FB",
"^. c #B6EDFF",
"/. c #BDEBFD",
"(. c #BFF0FE",
"). c #C3D5DB",
"_. c #C9D6DB",
"`. c #C5D8DD",
"'. c #C4D9E2",
"]. c #C6DBE3",
"[. c #C2DCEA",
"{. c #C5E2EB",
"}. c #CCE2EC",
"|. c #C3E4F2",
" X c #C9E5F0",
".X c #CDEAF5",
"XX c #CCECF6",
"oX c #C4E6F9",
"OX c #C4EAFB",
"+X c #CDEDFB",
"@X c #D1E7F1",
"#X c #D3EBF4",
"$X c #DCECF5",
"%X c #D9EDF9",
"&X c #D5F1FC",
"*X c #DBF2FC",
"=X c #E3F4FC",
"-X c #EBF5FB",
";X c #F5F8FD",
/* pixels */
"L.L.L.L.L.L.L.L.P.I.I.U.U.U.U.U.U.U.U.U.E.U.U.U.E.U.U.U.P.P.L.<.<.<.<.L.L.L.L.L.<.L.L.L.<.L.L.L.L.L.<.<.<.<.<.<.,.,.L.<.<.,.<.<.",
"P.P.P.I.U.U.U.E.E.E.W.W.W.W.W.E.W.W.W.^.(.(.^.^.^.^.^.W.U.I.P.L.L.L.P.L.P.P.P.P.P.P.P.P.P.P.P.P.P.P.P.P.P.P.P.P.P.P.P.P.L.P.P.L.",
"I.I.I.U.U.U.U.U.E.E.E.W.E.E.W.E.E.E.E.W.E.W.E.E.U.E.U.U.U.E.^.^.+X(.U.P.P.I.I.I.I.P.I.I.I.I.I.I.I.I.U.I.I.I.I.I.I.I.P.I.I.I.I.I.",
"U.U.U.E.E.U.U.U.U.U.U.U.U.U.E.E.E.U.U.U.U.U.U.I.I.U.P.U.(.=X-X-X-X*X&X&X(.U.U.U.U.U.U.U.U.U.U.U.U.U.U.U.U.E.E.U.U.U.U.U.U.U.U.U.",
"E.E.E.E.E.E.E.E.E.E.E.E.E.E.E.E.T.U.E.U.U.U.U.E.W.^.E.^.&X;X-X=X*X*X;X;X*X(.U.U.E.E.E.E.T.E.E.E.E.E.E.E.E.E.E.E.E.E.E.E.U.E.E.U.",
"E.E.W.T.E.E.W.W.E.W.E.E.W.E.W.E.T.W.W.T.E.W./.XX*X=X=X*X=X=X*X*X*X*X&X=X*X^.E.U.E.T.W.W.E.W.E.W.E.E.W.W.E.E.E.W.E.E.E.W.E.T.E.E.",
"W.W.W.W.W.W.W.W.R.W.T.W.W.W.^.E.W.W.W.W./.%X-X-X-X-X-X=X=X*XXX+X&X+X+X+X/.E.E.W.T.W.R.W.W.R.W.R.W.W.W.W.W.R.W.R.W.W.W.W.W.R.R.W.",
"OX!.T.W.R.R.R.R.R.R.W.W.^.W.W.W.W.T.T./.$X=X=X$X*X&X&X*X$XXXOX/.+X&XOXOX/././././.!.W.W.!.W.R.R.R.!.W.R.R.W.W.W.R.R.!.W.R.R.R.R.",
"oX!.R.H.R.R.T.R.R.R.R.R.R.R.R.R.T.T.!..X$X$X#X+X.X#X$X$X&X&XOXOX&X&X/.oX#X$X$X$X$XOXR.T.R.R.R.!.R.R.T.R.R.R.R.R.R.R.R.R.R.W.T.!.",
"!.R.H.H.H.R.H.W.H.R.H.R.H.H.T.G.!..X#X$X#X#X.X.X@X$X=X#X#XXXXXQ./.OX.X.X.X#X$X$X.X!.H.H.R.H.H.R.H.R.H.H.H.H.H.H.H.R.H.G.G.G.G./.",
"K.H.H.H.G.G.G.H.H.G.G.G.G.H.K.oX X@X@XQ.J.Q.Q.{.@X#X{.|.|.|.Q.Q.Q.Q.{.Q.Q.Q.oX XQ.F.G.H.G.G.H.H.H.G.G.G.H.G.G.G.H.G.G.H.K.K.~.OX",
"Z.A.S.J.D.D.D.D.D.D.c.x.D.J.}.}.{.{.Y.Q.A.A.A.S.Y.{.Y.Y.N.Y.Y.Q.A.S.S.{.S.F.D.F.D.x.c.D.D.D.D.D.D.D.c.c.c.c.c.c.D.c.D.J.[.S.S.Q.",
"b.V.V.V.v.z.z.n.z.z.z.z.v.V.C.Z.N.N.N.N.N.M.M.N.i.i.M.i.i.i.p.p.V.Z.'.'.Z.V.n.l.l.z.z.z.z.z.n.z.v.B.B.n.z.l.l.z.l.l.n.m.u.y.b.A.",
"r.e.w.q.h.j.j.j.k.v.z.k.v.b.N.e.0.f.0.w.v.r.C.a.r.0.9.0.p.p.p.a.s.'.).).).C.b.v.v.m.b.h.h.h.j.h.m.).'.V.m.b.m.B.h.g.v.m.t.r.r.C.",
"q.q.q.w.r.b.n.j.k.v.v.v.k.M.k.r.k.q.w.t.s.)._._.p.q.w.i.s.s.a.`._._.)._.).y.r.m.)._.).u.v.k.h.b.).).).u.s.s.u.C.v.l.v.r.r.e.e.V.",
"r.r.r.t.s.a.v.k.v.V.V.V.M.k.k.M.r.v.s.)._._.).).s.a.s.s.s.s.s.s.).s.).`.s.b.r.u.s.u.u.y.v.h.k.V.).C.).).a.a.s.s.y.v.v.b.r.r.r.V.",
"u.u.y.u.y.t.t.V.V.a.p.t.r.v.r.v.k.p.`.`.).).).s.s.`.`.`.s.s.s.a.a.s.s.s.).s.s.a.a.s.t.0.0.0.e.u.u.y.y.y.b.t.s.'.s.b.m.y.u.y.u.C.",
"s.u.u.s.s.y.y.y.t.y.y.v.j.w.s.s.s.s.`.).).s.s.).s.s.s.s.`.s.a.a.s.s.Z.s.).`.s.a.p.t.q.d.9.e.p.y.y.u.m.r.r.C.).).s.a.).).s.s.s.'.",
"y.t.b.a.s.a.r.v.t.s.a.i.w.p.`._.s.`.`.`.).).s.s.s.s.s.s.s.s.a.p.a.s.s.`.s.s.s.s.t.q.9.9.e.a.y.u._._.u.y.a.).).C.V.s.).u.y.y.s.].",
"y.y.t.t.p.i.j.q.r.t.r.v.i.a.)._.s._.).).).).p.p.a.s.s.a.a.a.s.p.a.a.s.s.`.s.s.s.t.0.0.r.a.s._._.).).u.u.).).C.a.y.a.y.V.a.C.).].",
"a.p.i.r.e.k.w.w.w.w.w.w.q.r.s.).s.`.).s.s.s.a.t.y.a.a.a.t.y.a.a.a.a.a.a.a.a.s.a.r.q.e.a.a.u._.).y.y.u.u.).).s.V.r.r.r.u.).s.s.C.",
"t.r.r.e.r.r.a.a.y.y.p.r.i.a.s.u.a.s.s.p.p.p.i.t.r.t.t.a.a.p.y.a.a.a.p.p.a.t.p.p.t.t.t.r.e.y.y.y.t.r.t.y.u.u.a.r.M.r.y.).).s.y.C.",
"a.a.a.u.y.s.a.a.a.s.s.a.s.).).y.a.a.p.r.e.r.t.i.r.t.t.t.p.p.t.y.t.r.i.i.r.t.t.y.y.y.t.t.e.e.t.t.r.e.e.w.w.p.r.i.r.a.)._.).s.s.C.",
"s.).s.s.u.a.t.y.u.a.u.y.t.s.u.y.t.a.t.p.p.t.t.p.a.a.y.t.t.t.y.r.e.0.w.w.e.t.y.s.s.u.y.y.t.t.e.t.e.e.e.t.e.t.s.s.s.s.).).s.s.).'.",
"s.).s.y.t.e.t.t.y.t.t.r.y.y.y.t.t.t.t.t.a.a.t.t.t.y.y.t.r.t.r.r.r.k.e.e.r.r.t.y.a.a.a.p.y.t.r.e.e.y.y.y.y.y.)._.).).).).u.).u.).",
"t.t.t.t.e.e.e.q.e.e.e.r.r.t.r.t.t.r.e.t.t.t.r.r.e.t.t.y.y.y.y.t.r.r.r.e.e.e.q.e.e.r.e.t.t.e.e.e.t.t.t.t.t.a.s.s.s.).).).).).s.s.",
"0.q.q.w.e.w.q.q.q.e.e.e.r.e.r.r.e.e.e.r.r.t.y.t.t.e.e.t.r.r.e.w.w.w.w.q.e.q.q.q.q.q.q.w.e.e.e.e.e.0.e.e.e.r.p.p.y.u.).s.u.).u.s.",
"9.0.0.q.q.w.w.e.e.e.e.e.q.q.q.q.q.q.0.q.q.q.r.r.q.q.0.q.0.0.0.q.w.w.e.e.r.r.e.e.r.e.q.q.e.q.0.0.0.e.e.r.t.e.e.e.r.t.t.t.y.a.y.s.",
"w.q.w.w.w.e.t.t.y.y.t.r.r.q.q.w.w.w.w.0.q.w.q.q.0.0.q.q.w.q.w.w.e.e.r.r.e.q.q.e.e.q.0.0.0.0.0.0.0.e.e.e.r.e.0.0.q.0.0.9.9.q.e.a.",
"t.t.t.r.t.t.t.y.y.y.a.a.y.t.i.t.r.r.r.t.t.t.a.t.r.e.r.t.t.r.r.e.e.e.e.e.e.q.0.0.0.0.0.0.0.0.0.0.0.0.0.0.0.e.e.q.0.0.0.9.0.e.t.a.",
"t.t.r.i.t.r.p.i.r.p.i.i.r.i.i.i.r.i.r.p.r.p.p.i.t.r.i.i.t.t.r.r.r.e.r.e.r.r.t.e.e.e.e.e.e.q.e.e.e.e.e.e.r.r.r.e.e.q.q.e.r.p.t.a.",
"t.r.t.i.r.r.w.i.e.w.w.r.w.w.w.w.r.r.v.r.r.r.t.i.t.t.r.i.t.t.t.r.y.r.r.r.r.r.t.t.r.r.p.t.e.e.e.e.t.t.e.e.r.r.r.e.e.q.e.r.r.r.r.r.",
"i.i.i.i.i.i.p.i.i.v.w.r.w.r.r.w.w.r.i.i.r.r.r.r.r.t.i.i.i.r.r.r.r.e.r.r.r.e.r.r.r.r.r.r.r.t.t.r.r.r.e.r.r.r.r.r.w.w.w.r.w.w.w.i.",
"p.p.p.p.p.p.p.p.p.p.p.i.i.i.i.i.i.i.i.i.t.r.t.i.i.i.t.p.p.t.p.t.r.r.r.r.r.t.t.t.t.r.r.p.i.t.p.p.i.p.r.p.t.r.r.r.r.r.r.r.r.r.i.a.",
"p.N.i.i.i.p.p.i.r.p.p.M.p.p.i.M.i.i.i.i.i.p.i.p.t.p.p.i.p.p.p.p.y.p.p.p.p.p.p.p.p.p.p.p.p.p.p.p.p.p.p.p.p.t.t.t.p.t.p.p.p.p.a.a.",
"i.p.i.i.i.i.i.i.i.M.M.r.i.M.r.i.i.w.w.i.i.i.i.i.i.p.p.i.t.p.p.t.p.a.a.p.p.p.a.p.p.a.a.t.p.p.p.a.p.p.p.p.t.a.a.p.p.a.p.p.a.p.p.a.",
"p.p.p.p.p.p.p.p.p.i.p.p.p.p.i.i.i.i.i.i.i.i.i.p.p.p.p.p.t.p.a.a.p.p.p.t.p.p.p.a.t.p.a.p.p.a.p.p.p.p.t.a.p.p.t.y.p.p.t.t.p.p.p.a.",
"a.p.p.a.a.a.a.p.p.p.a.p.a.p.p.a.p.p.p.p.a.a.a.a.a.a.p.a.p.a.p.a.a.p.a.y.a.p.a.a.y.y.p.a.p.p.p.a.p.p.t.t.a.a.t.y.a.a.a.p.a.a.p.a.",
"t.t.i.t.p.i.t.r.t.r.p.i.t.t.t.t.t.t.p.p.t.y.y.t.t.t.p.p.t.t.b.t.p.r.t.t.t.t.t.t.t.t.t.t.t.t.t.t.p.p.p.y.t.t.t.y.p.p.t.y.a.t.p.p.",
"2.4.4.7.4.6.6.4.f.2.9.d.4.4.g.4.4.f.9.9.4.7.7.4.9.4.d.9.7.4.4.6.9.9.4.7.9.9.9.9.7.7.9.9.9.9.7.g.0.9.0.0.9.9.0.0.9.0.q.g.g.0.0.0.",
";.$.$.#.%.>.>.>.>.$.>.>.$.$.$.$.$.$.=.$.=.$.=.>.=.$.$.=.=.>.>.>.=.=.$.=.=.>.=.$.=.=.=.=.=.=.;.=.>.;.;.;.=.=.;.;.=.=.;.;.;.;.-.-.",
"{ [ O.O.O.O.O.+.O.O.X.O.O.O.[ X.[ [ [ O.[ [ O.o.+.o.O.[ +.+.+.X.[ [ O.+.{ [ +.+.+.+.+.O.+.+.+.+.+.+.+.+.+.+.+.+.{ ] { +.@.+.@.+.",
"W W W W E W Q Q Q Q Q Q W W W W Q Q Q Q Q Q Q W Q W Q }  .Q W W Q Q  .Q Q  . . . .Q Q  . . . . .Q  . . . . . . . . . . . . . . .",
"L L L I P P I I P I U L I U U U L L I I L P P L J P P P I P P U I I I L L L L L L P P I P P P L I I P I I P P P K P P E E P P P ",
"` ..` ..| ..| ^ | | / ^ ) ^ / | ) ( ) _ ) ) | | ( ^ ^ / ^ ^ / } } ) | / / / ^ R R ^ ^ ( G G G G } R R / ^ W ( / G G R / W R T R ",
"6.6.4.4.2.2.7.7.3.3.1.6.7.8.6.6.4.2.4.2.2.2.4.2.2.1.3.1.3.1.3.3.5.g.8.6.1.3.2.3.1.2.2.2.&.*.*.1.5.-.&.&.&.3.1.3.1.&.-.-.-.-.-.-.",
"3.5.:.:.:.5.3.5.;.*.6.g.7.4.7.h.7.6.4.6.3.4.6.5.*.*.:.3.3.*.3.3.3.7.h.8.3.6.6.6.7.g.6.*.:.*.3.5.:.d.3.*.*.f.2.3.4.4.3.5.:.5.5.1.",
"+.@.+.O.+.#.#.$.%.;.$.$.$.$.:.-.;.$.;.;.$.;.%.#.$.;.$.{ ] ] @.] #.-.=.#.#.{ [ #.;.;.#.{ #.#.{ { +.#.#.#.%.#.#.#.#.{ @.+.+.+.o.o.",
" . .Q W } ....X.@.o.} } ..[ X.| o.X...| X.X.{ #.$.;.;.@.| X.o...{ $.] _ _  .W W _ _ ..' X.}  . . . . ...[  ._  .(  . . ... . .Q ",
"T P P P T Y T W T T R G ( ( P P T T T W | W (  .( ( ) ) | ` o.@.] } ( ( W E K T W | ' ' R T T T T P E W E T P E E E T T E T T T ",
"P K K K K K Y Y T Y Y / G A P T J K G ^ / R T K Z J K K T T / ' W A T T F G G / ^ ) / T K K Y Y Y T E P T P K K K K K P K P K P ",
"A A N A D F G R Y H K F F D F A Z D ~ D C F F A A J K A H J N A A D D Z D ^ ^ ^ R D Z J K Y K K Y T D A F Y A J Z A K Z A A A A ",
"M M M M ~ ~ F A m M m C S ~ ~ B N C F m N C N N D F A n n M m n M C N N F F C C N M M N N N N M N N M n N A N M M N n m N N M N ",
"b v n n m b n n n n m V ! ~ S V m b v v b V b B ~ c l l B S B b n v v b b b b b g v v v v v v v v n n n n v n n n v v v n v v v ",
"g g g g g 0 g g l l l x c x z z h g g d h j B c c l 0 l x c h g g g g a g g h g h g g g g h h g g l l l g v l v v g b v l g l l ",
"a a a a 0 a a a i 0 0 i i f a a a s h a 0 a s s i 0 d f f d i i a a a a a a h j s s s 0 a h j s a a 0 a a a a a a a a d a a d a ",
"t t t t i e 8 i 8 9 t t t t t t y j k p y e 9 9 9 8 t 9 t i i t t t t t i t i i 9 9 i i t y t i i 9 9 9 9 9 9 9 t t 9 t t t 9 t ",
"5 5 5 5 5 5 5 6 7 5 5 e 5 8 8 8 e y p y e e r p y y y 7 8 e 7 8 t 8 e e e e 7 e 8 8 e t e 7 7 8 e e 9 7 e e e e 8 8 8 e t 8 t e ",
"5 - ; ; ; ; ; ; ; ; 2 2 ; 5 5 ; : : : 4 4 q u u r r w 4 4 4 6 4 : 6 6 4 6 6 6 6 4 4 q 4 4 4 q 4 4 7 7 4 4 q 4 q 7 7 5 5 6 7 5 6 ",
"= = = = = = < = = < = < = = = = = = = < 2 2 3 < = - 1 - - 3 3 1 - 1 3 3 1 3 3 3 ; ; ; ; 2 ; ; - - 2 ; 2 2 - ; 2 2 - 1 1 - 2 - = ",
"& @ > & & > > & > > > > & & > & & > > > > > & & & * * * > , , * > > > > > > > > & * , > > > * > > > > , , , > , , * > > > > , > ",
"@ @ % @ @ @ @ # @ % @ @ @ @ @ @ % % + @ @ @ + % @ X @ @ % > + > % % $ % % % # % > > + > @ @ @ > @ @ > @ @ % > X % @ @ @ @ % % @ ",
". X # . . . . O O @ . +   @ # . + $ + X X X X + + X + + X + + X + + O $ $ # # # + + + + + + X + + X + + + X X X X X X X O @ # @ ",
"            O o o o O           O O O O     o O O     O O   O O O   o O + O . . . O O o O o     o o o o . . O       . .         "
};
