/* XPM */
static char *result[] = {
/* columns rows colors chars-per-pixel */
"64 64 251 2 ",
"   c #261F11",
".  c #2D281D",
"X  c #342C1A",
"o  c #3D331D",
"O  c #282827",
"+  c #322D21",
"@  c #362E25",
"#  c #363124",
"$  c #3A3426",
"%  c #38352A",
"&  c #3C3629",
"*  c #3E392A",
"=  c #303134",
"-  c #373536",
";  c #443925",
":  c #423C2C",
">  c #433D3A",
",  c #48412F",
"<  c #54472B",
"1  c #474232",
"2  c #4B4432",
"3  c #4F4835",
"4  c #524B36",
"5  c #564C37",
"6  c #554D39",
"7  c #595139",
"8  c #5B533C",
"9  c #61563B",
"0  c #63593D",
"q  c #695B3C",
"w  c #6E613D",
"e  c #75693E",
"r  c #363B48",
"t  c #2E3951",
"y  c #273D69",
"u  c #3B424D",
"i  c #384459",
"p  c #1D487F",
"a  c #2F4874",
"s  c #5D5846",
"d  c #575254",
"f  c #615547",
"g  c #655C43",
"h  c #695E44",
"j  c #645B59",
"k  c #6B6145",
"l  c #686147",
"z  c #6D6449",
"x  c #726544",
"c  c #796A44",
"v  c #716649",
"b  c #746A4B",
"n  c #7A6D4C",
"m  c #7D714D",
"M  c #6B6959",
"N  c #766C56",
"B  c #7E7251",
"V  c #485469",
"C  c #545965",
"Z  c #465A79",
"A  c #546571",
"S  c #56697A",
"D  c #696666",
"F  c #746A68",
"G  c #79756B",
"H  c #6B6B73",
"J  c #797477",
"K  c #81734E",
"L  c #89774B",
"P  c #827552",
"I  c #877A54",
"U  c #877A6E",
"Y  c #788279",
"T  c #90804E",
"R  c #968659",
"E  c #A7955D",
"W  c #B29C5D",
"Q  c #B9A15F",
"!  c #9A8C61",
"~  c #968A69",
"^  c #A39464",
"/  c #A99967",
"(  c #B29E66",
")  c #B7A266",
"_  c #B2A57D",
"`  c #CBB16C",
"'  c #E0C776",
"]  c #113D9D",
"[  c #1A4795",
"{  c #1D5499",
"}  c #294885",
"|  c #2F5290",
" . c #245598",
".. c #225B9D",
"X. c #386499",
"o. c #1A46A6",
"O. c #1B4AAC",
"+. c #1A57A7",
"@. c #1C4CB4",
"#. c #184AB8",
"$. c #1B4EBA",
"%. c #0D54B2",
"&. c #1958B6",
"*. c #1C52BC",
"=. c #244BA7",
"-. c #235CA4",
";. c #2E55AE",
":. c #2659A8",
">. c #2455B7",
",. c #1D62AD",
"<. c #1A63B9",
"1. c #1C64BC",
"2. c #2362AD",
"3. c #2962A9",
"4. c #3767A7",
"5. c #2364B4",
"6. c #2866B9",
"7. c #226ABC",
"8. c #3768B5",
"9. c #3672B5",
"0. c #3673B9",
"q. c #475B8B",
"w. c #506B90",
"e. c #767688",
"r. c #687397",
"t. c #707592",
"y. c #4665A9",
"u. c #5371AB",
"i. c #436AB7",
"p. c #4577B9",
"a. c #6979AA",
"s. c #1C54C3",
"d. c #1957CD",
"f. c #1D5AC8",
"g. c #235CC7",
"h. c #235DD2",
"j. c #1966C6",
"k. c #1B6CCC",
"l. c #1369D1",
"z. c #196CD6",
"x. c #1B73D7",
"c. c #226CC3",
"v. c #2667CA",
"b. c #3668C5",
"n. c #2971C7",
"m. c #2272CC",
"M. c #3777C9",
"N. c #2567D7",
"B. c #346BD2",
"V. c #2275D3",
"C. c #2677D6",
"Z. c #227BDB",
"A. c #3676D7",
"S. c #156FE9",
"D. c #1876E6",
"F. c #2875E5",
"G. c #2972E9",
"H. c #387BE7",
"J. c #4877CF",
"K. c #427CE7",
"L. c #778B96",
"P. c #7493A9",
"I. c #6B93B4",
"U. c #2F81D4",
"Y. c #3484DA",
"T. c #1C81E6",
"R. c #2383E3",
"E. c #3B87EA",
"W. c #3A85F1",
"Q. c #4786D2",
"!. c #6896D3",
"~. c #4684E7",
"^. c #468CF5",
"/. c #4C96F9",
"(. c #5598F2",
"). c #58A5FE",
"_. c #5DAAFF",
"`. c #6FABE5",
"'. c #73AEE3",
"]. c #76AFE6",
"[. c #75B1E4",
"{. c #7BB2E4",
"}. c #75B1EB",
"|. c #7BB5EA",
" X c #7BBAEE",
".X c #6AABF7",
"XX c #63ADFD",
"oX c #73ACF2",
"OX c #6CB2F5",
"+X c #65B3FE",
"@X c #6BB2FC",
"#X c #6CBDFE",
"$X c #73B3F3",
"%X c #77B6F9",
"&X c #6EC3FF",
"*X c #71C4FF",
"=X c #7BC3FF",
"-X c #74CBFF",
";X c #7BCDFF",
":X c #78D4FF",
">X c #7BD4FF",
",X c #949891",
"<X c #A59986",
"1X c #9BA396",
"2X c #A5A387",
"3X c #AFAE91",
"4X c #BAB898",
"5X c #9DA5AC",
"6X c #D5C88C",
"7X c #D1CD9D",
"8X c #82B5E4",
"9X c #8BBAE4",
"0X c #88BAE9",
"qX c #93BDE4",
"wX c #94BEEA",
"eX c #86BCF4",
"rX c #9DC2E4",
"tX c #98C2EA",
"yX c #88C8FC",
"uX c #98CAF8",
"iX c #83D4FF",
"pX c #8AD6FF",
"aX c #83D9FF",
"sX c #8CDAFF",
"dX c #94D2FF",
"fX c #9BD3FF",
"gX c #94DBFF",
"hX c #9CDCFF",
"jX c #A3C4E3",
"kX c #A7CAE9",
"lX c #B1D1EA",
"zX c #A6CDF4",
"xX c #A9D7FC",
"cX c #B6D9F8",
"vX c #B4DBFD",
"bX c #91E6F9",
"nX c #A7E1FF",
"mX c #B4E4FF",
"MX c #BCE3FF",
"NX c #BEE8FF",
"BX c #C1DFFC",
"VX c #CEEBEE",
"CX c #C3E4FE",
"ZX c #C7E8FF",
"AX c #CCEBFF",
"SX c #D3EDFF",
"DX c #DAEFFF",
"FX c #D6F1FF",
"GX c #DCF1FF",
"HX c #E2F4FF",
"JX c #E9F5FF",
/* pixels */
"VXbXbXsXsXsXsXnXZXFXHXJXJXHXHXGXHXJXHXHXZXmXMXmXgX:X:X>X:X:X:X>X>X>XaX>XaXaXaXaXiXaXiXaXaX>X>X>X>X>X:X>X>X>X>X>XaXaXsXgXpX>X>X>X",
"lXbXaXaXgXhXnXAXSXZXAXFXGXGXGXGXGXGXHXGXFXGXHXGXmXaX:X>XsXxXhXbXsXaXsXsXsXsXhXgXhXgXgXsXsXsXpXsXgXsXsXbXgXgXsXsXsXpXgXhXhXpXaXaX",
"bXaXaXaXsXnXMXMXmXNXNXZXFXFXFXAXSXSXGXGXSXFXGXHXNXpX:XaXmXSXSXSXmXsXaXsXsXpXsXgXgXhXgXsXsXsXgXhXhXgXhXhXhXgXpXpXaXiXsXhXgXaXaXpX",
"bXaXiXiXiXpXhXhXnXnXmXZXAXFXAXAXAXAXAXSXFXGXGXGXZXgX:XhXSXHXHXJXSXhX:X>X>XiXiXaXiXiXiXiXaXiXaXaXiXaXaXpXpXiXiX>XiXiXaXiXaX>X>XaX",
"aX:X;X;X;X;XiXfXxXnXnXZXAXSXSXFXSXAXZXAXSXSXSXDXAXnXhXmXDXDXDXHXGXnX;X-X:X:X;X;X-X:X:X:X>X;X:X:X>X:X:X>X;X>XiXiXiXiXiXiXiXiX;XiX",
":X&X&X*X;XyXdXdXgXhXxXmXNXNXZXAXSXAXCXCXZXCXZXAXAXZXvXAXSXDXDXSXSXCXxX-X-X-X-X-X*X-X-X*X-X;X-X-X;X-X-X-X-X;X;XiXyXiX;XiX>XiX;X>X",
"-X&X*X-XdXxXfXdXdXdXfXfXfXxXnXCXMXmXvXvXvXvXmXMXCXAXSXAXAXAXAXAXZXAXvX;X*X*X&XiXdXiXyXiX*X-X-X*X-X-X*X-X-X-X-X-X-X-X-X-X-X-X-X>X",
"&X*XyXuXxXxXdXuXuXfXfXyXyXdXfXfXfXdXfXxXxXxXxXxXxXvXBXCXBXvXBXBXBXZXvXyX#X#XyXxXcXvXvXxXyX#X&X&X*X*X*X&X*X*X*X*X&X&X&X&X*X&X-X>X",
"&X%XzXlXlXfXuXzXcXlXzXzXdXyXyXyX=XyXuXzXxXuXuXuXuXxXcXcXcXcXxXxXcXcXvXzX=XyXxXvXBXBXBXBXzX=X#X#X#X#X#X#X#X#X#X#X#X#X%X*X*X&X&X&X",
"#XeXzXlXkXrXrXlXlXlXlXlXrXtX0X0X X0XtXuXzXtXyXtXyXtXzXzXzXuXkXuXuXzXxXuXeXuXuXzXxXcXlXcXxXzXzX%X+X+X+X@X+X@X@XXX+X#XeXeXuXeX#X#X",
"eXwXjXjXjXjXjXjXkXjXjXjXrXqX8X[.'.{.8XqX9X9X8X9X9XqXqXrXwXwXqXwX9XqXwX0XqX9X0X9XtXkXkXzXkXkXlXuX+X_.XX_._._.)..X%XyXzXlXlXuX*X@X",
"zXkXjXjXjXrXjXjXjXjXjXqX9X8X{.[.'.].8X8X|.8X8X{.8X8X9X9X9X9X8X8XqX9X9X0X8X8X'.{.9XwXwXrXqXjXkXwXXX).)._.XX@X.XeXwXtXkXkXkXjXyX$X",
"kXjXjXrXqX9XqXrXrXrXrXqX9X8X{.'.'.'.'.].{.{.8X8X{.{.{.8X8X8X{.8X0X9X9X9X8X'.{.8X8X8XqXqXqXqXwXwX_.)._.OXwXwXwXwXrXrXjXjXjXjXwXwX",
"tXqX9X0X{.'.{.9X9XqXqXtX9X{.[.'.'.'.'.'.'.].8X8X8X8X8X].].].].{.8X8X9X8X8X'.'.{.].{.8X8X9X9X0XoX_._._.%XwXjXrXrXrXrXjXjXjXqXrXzX",
"0X{.].].'.'.'.'.'.{.8X9X8X[.'.[.'.'.'.'.'.'.{.8X{.8X].'.`.'.'.'.].].{.{.{.'.'.'.].].'.8X8X8X{..XXXXXXX%XwXjXjXjXjXjXjXwXqXqXwXkX",
"}.'.'.'.'.`.'.'.'.'.{.8X|.[.[.{.{.{.].'.'.'.'.'.'.'.'.'.'.'.`.`.'.'.'.'.'.'.'.'.'.'.'.'.'.'.{.].+X_.XX%XeXwXrXjXwXrXqX9X8X8X9XwX",
" X[.].'.'.[.'.[.].|.|.|.{.|.|.|.|.|.|.{.{.'.`.`.`.`.'.'.'.'.}.].'.'.'.].'.].].`.'.`.'.'.'.'.'.'.XX+XXX@X%X0XwXwX0XwX0X9X{.'.'.9X",
"%X}.|.{.|.{.|.|.8X0X0X8X0X0X X XOXOXOX$X X|.|.}.}.oX`.'.{.}.}.}.OXOXOX}.}.}.].].'.'.`.'.'.'.'.OXXX.XOXOX%X$XeX0X%X%X%X%XoX].'.[.",
"#X@X X X%X%X%X%XeXeXeX0X0XeX X%X@X+X+X+X%X%X X%X.X.XOXoX$X@X@X@X$XOX.XOXOX$XoXoX}.`.'.`.'.}.OX@X+X@X%XOXXX+X@X@X.X+X+X@X@XOX}.$X",
"W.E.(.(.(.^.^./.(.(..X.X.X(.(././././.)./.).)._.).).).).).).).).).).).XXXX_.XXXXXX@XOXOX@X+X@XXXXX+X_._.XX+X+X@X@X+X+X@X@X@X@X%X",
"*.@.>.*.g.g.g.h.N.B.B.B.b.b.v.g.g.h.h.h.N.N.G.N.N.G.N.h.N.N.N.G.F.G.H.H.H.H.H.H.W.W.~.W.W.^.W.W.W.^.^.^.^.^.^.^././.^./././.(.).",
"=.@.o.O.@.@.@.$.s.$.#.#.#.@.@.O.=.=.@.O.=.$.s.#.@.$.@.O.$.O.O.O.O.o.o.O.O.@.s.s.@.$.*.*.*.>.>.O.=.>.@.>.>.>.$.g.d.s.s.h.h.h.g.N.",
"a ;.>.s.@.O.$.@.$.*.s.s.d.s.s.@.O.#.| t r y [ s.$.$.$.$.s.$.@.$.#.@.@.$.$.$.$.$.s.O.} } =.$.o.=.o.O.O.O.@.O.o.O.s.#.s.#.s.#.s.s.",
"- i ;.g.:.:.>.>.>.g.s.s.g.g.s.*.$.=.r = r O - [ >.=.@.$.>.@.@.g.*.s.f.g.s.s.s.s.>.t ; - t | >.*.$.s.*.*.s.*.$.s.s.s.d.h.d.h.h.a ",
"i = 0.H.B.M.B.A.A.A.A.A.B.H.H.H.C.a > ;.B.y.r r b.B.b.b.8.b.6.6.v.6.b.b.b.B.v.v.i - | ;.r r ;.g.g.g.h.g.g.v.g.g.h.h.N.N.S.h.a > ",
"V O y.K.h.B.J.B.b.b.J.J.h.N.J.~.B.t d a.wXK.i O ;.K.!.K.~.~.K.A.Q.K.A.K.K.K.E.9.- a K.K.y.- | H.^.~.K.K.~.H.H.H.H.K.K.H.G.b.; } ",
"j r y.J.=.>.8.=.o.o.>.8.;.] :.y.y.V d ,X4X5Xd r o.>.J.u.i.i.8.i.J.i.>.>.>.>.g.| = i ,X5XH @ a g.v.p.i.J.J.b.8.b.J.J.M.v.J.q.. q.",
"U J t.r.y.y.8.>.;.;.@.i.y.X.q.t.J F F <XU U U J r.u.;.i.;.o.=.;.=.] ] @.:.o.@.| r f ,X<XF j | ] ] ] =.r.y.=.=.=.;.;.>.y.J.| @ F ",
"w.F F F J e.e.r.t.t.t.t.e.U J D C Z q.d > d C H U e.e.L.u.4.u.b.;.;.;.8.u.u.r.e.j d D d G U e.r.y.;.>.i.8.>.#.6.b.>.;.a.a.r.d j ",
"y.| Z Z C C D D F F D H H Z Z } } =.o.y O r [ } V V D G U J e.e.t.e.e.J J J F C Z | t . V | D G U U r.r.r.u.u.r.r.r.e.J U j V V ",
">.&.:.8.3.{  .| | :.X.;.@.@.+.+.i.p.:.p & t [ +.] } } a V V C C J J A V Z a | :.g.&.t % } s.:.| q.S C D D F F F F F H Z q.u.g.} ",
"=.:.:.3.3.:.&.1.g.z.j.j.j.v.6.>.8.4.:.a & t  .+.=.=.o.[ { o. . .4.y. .{ { :.8.3.6.+.r * } k.j.*.&.6.3.;.-.X.X.3.3.i.B.z.v.N.h.=.",
"+.<.+.,.2.2.7.7.7.j.j.1.k.n.5.,.,.,.<.a % u { ,.+.-.4.....{  ...o.{ { { +.4.4.3.3.{ u * | 7.,.<.<.j.k.z.k.k.D.D.D.D.F.Z.z.m.B.3.",
",.1.<.%.5.6.7.5.6.c.6.0.7.1.5.2.,.<.<.} % i +.%.+.4.X.4. .{  . .{ { { {  .+.+.+.%.,.i = | <.<.1.c.m.m.n.Q.U.x.R.Z.V.C.V.M.n.z.8.",
"1X5XI.&.<.5.7.7.j.n.Q.J.c.k.7.1.0.I.I.S O - L.I.u.3............. ...{ 3.2.5.,.7.U.U.i O | U.M.V.x.Z.C.A.(.Y.Y.Y.x.R.x.m.m.k.V.8.",
"6X' 2X9.&.7.7.7.k.m.U.U.m.M.x.l.I.7X6X/ 6 m ` 6X1X4.%.{ ..3.3.3.,.2.5.6.7.1.m.P.7X7XM * R 7X4XQ.x.x.Y.R.R.R.R.U.E.R.Z.x.Z.!.4X3X",
"^ R ! w.<.<.7.7.c.m.m.C.U.U.x.m.,XW W / ~ / E W / L.%.%.3.2.9.3.2.,.2.9.2.%.9.2X` ' ( ^ Q ` ' P.x.x.R.m.x.R.T.U.Y.R.T.D.U.3X' ' ",
"m c b S k.k.7.c.m.V.Z.V.m.m.x.0.Y e m m T B b b T w.<.+.,.,...3.,.......3.%.X.~ T R ! ! R T T Y n.D.m.m.V.R.R.T.R.T.R.D.U.E T E ",
"b w w S k.k.7.n.m.m.V.V.m.m.x.9.M e k z v v l q x S ,.,.....{  ...{ .. .{ +.X.N c m b n b b m M 0.z.m.7.c.m.R.T.T.R.R.T.p.B e K ",
"b w w w.k.c.M.n.c.k.m.m.m.m.k.2.M e z v x z b k v S ,.,.3...............{ ,.X.N n m b b b b e G 0.l.m.k.c.c.m.U.R.V.R.D.p.m e c ",
"z w l S k.k.7.n.7.<.7.c.c.m.k.9.M c l k k x z k b S ,.,.,...,.3...3.3...,.+.X.N n b b b b b c M 0.k.c.7.n.n.m.m.m.m.V.x.9.b e c ",
"l w w A 1.<.,.7.7.7.,.7.7.7.1.9.M w l l k k l w z S ,.,.,.,.2.,.2.2.2.2.,.j.4.N c b b b v b c M 9.k.7.c.c.m.m.m.c.m.k.x.4.z e b ",
"l 0 w w.<.<.7.7.<.1.<.7.7.7.l.5.A w l q l l l 0 w S 1.,.2.5.5.1.7.5.7.7.1.k.9.M e b z z b v e M 0.x.V.m.x.C.U.M.m.c.7.k.9.l e e ",
"l 0 b w.l.l.j.<.j.j.l.j.j.j.l.<.M w l l l 0 l 9 l S <.%.<.<.<.<.<.<.<.7.j.l.4.M w z z z l v w M 7.S.x.x.k.x.V.x.x.k.k.l.,.M w w ",
"q 9 w L.I.0.9.9.0.p.p.M.0.M.n.I.M q q l 0 q s 0 w H Q.0.7.0.M.6.9.7.c.n.n.x.u.N 0 l l l l l e v p.T.x.x.x.x.x.z.z.k.k.x.9.M 0 k ",
"8 5 9 R _ 2X2X_ _ 2X2X2X2X1X2X_ m 7 8 s s 8 8 7 7 ~ 3X2X,X,X2X<X,X1X1X1X,X1X2Xb 8 l l g g 0 8 v 2X1XL.P.P.,XP.P.L.P.L.P.2Xm 8 w ",
"z g w T / ) ( W E W ) Q Q ` ` E m k l q l w k 0 0 T W W W Q Q Q ) ) ) ) ) ) ) m w z l l l l 0 z ( ) ) ) ) ) ) ) ) ( ( ) E v l k ",
"c m m m ! / / ^ ! / / / ^ E / R m b n c b m n m m m T ^ E ^ ^ ! / / / / ^ / R N m b b c b c c v L E / W ^ ^ E E ^ ^ W E P v b c ",
"K K P P R R ^ ^ / / ^ ^ ^ ^ ! I K P K n P I P P I P I ! ! ! R ! ~ / / ^ ^ ^ I N n n m K n K m b m ! / ^ ! ^ ~ ! ! ^ ^ ^ P v n c ",
"k x v v z z z b N N b b N b l x b b b x b b N B n v v b v k b v b N P P K n B v v n n b n n b v b B P B P P P P P B P P n v v n ",
"2 , , 2 2 , : 1 2 : : 1 2 1 3 3 2 1 3 4 2 3 4 4 3 : > 2 2 1 , , > 4 6 3 3 6 6 3 6 7 6 4 5 6 6 3 3 4 6 6 4 4 7 8 6 3 4 6 6 4 6 8 ",
": # # $ * $ * & $ $ * * & * * % # & $ * : : : % @ @ & ; * * $ $ ; ; & & & & : : & * : 2 : : * % $ % % & & & : * & & & & & & @ ; ",
"3 , 1 6 6 4 3 6 6 f 6 6 6 6 3 2 4 2 : * 4 8 5 : : : 2 4 3 2 < < < < < 3 3 2 3 : * : 6 8 7 2 * * 1 2 2 2 2 2 1 : , , 2 : > : : : ",
"5 , 7 g g h h l k h z l l g g g g 8 3 2 5 9 8 : : s s g g 8 q 9 d s 9 q q 0 g 8 3 3 8 g q 7 3 6 s g h h g g g g g f g g g 9 3 2 ",
"4 3 7 l l h l h l h h h h l h h l s 4 , 5 0 8 , 2 7 h h g 9 C X.6.3.X.d q x k h 7 3 8 g 0 7 3 7 0 l h k h l k b k k h l h g 4 1 ",
"7 , 3 8 s 7 s 6 6 s 6 7 8 8 8 7 7 4 2 2 8 0 9 3 1 3 6 8 9 Z j.z.N.z.z.c.Z 9 9 8 3 5 9 h l 7 3 3 8 8 8 8 s 8 g 0 8 8 7 7 s f 3 2 ",
"5 : # : : * ; * : * * : : , : : * $ % 2 8 9 9 5 * $ o ; 3 :.S.z.v.z.N.D.3.1 ; * ; 3 0 w g 8 3 * : : : : 1 : : : : : : & : & & 2 ",
"5 % . . @ @ + + + + + @ @ + + + + . # 2 8 8 9 7 * . . X % :.G.N.v.v.N.S.-.$ X . . 2 8 k k l 3 . . + + + + + + X + . . + + + + : ",
"7 : @ % * % & * & * * : & & % * * # * 2 8 8 9 5 * # * o X a z.G.N.N.N.N.a X * $ # 3 8 q w l 2 $ & $ * $ # # @ # # @ $ $ $ @ @ : ",
"5 2 3 7 s 7 6 6 6 7 7 7 6 6 6 7 6 4 2 2 7 9 8 3 , 3 7 5 o O a j.G.D.G.{ . ; s 7 3 4 8 h l 8 4 4 8 8 7 6 7 6 6 7 7 7 7 6 6 4 3 3 ",
"4 2 8 z l k g h k h k k h h l h g g 4 2 8 0 7 4 3 8 b b 8 X . t } { a . . 7 v l 8 4 7 q k 8 7 9 h l l h h h h k h h x h h h s 2 ",
"4 2 8 l l l l l z k h h h h l l l s 3 2 8 0 0 3 2 8 l b x 7 X   . .   X 3 l l g 8 4 9 k k 8 5 7 h h h h k k l g h g g h l h 7 3 ",
"7 2 2 6 4 4 4 4 7 6 5 5 5 5 7 7 6 2 , 2 7 g 0 4 , 2 6 7 7 8 4 ; X X ; 4 8 7 7 6 , 4 0 h 0 9 5 , 4 6 6 6 5 5 5 5 4 4 > 5 5 5 2 2 ",
"9 : . % * $ * * $ & $ $ # # $ % % . # 3 0 q q 7 , + + $ $ $ * ; , , 2 , , * $ & & 5 h g g q 4 X # $ # # $ $ @ $ $ @ X @ ; o @ : "
};
